<?xml version="1.0" encoding="UTF-8" standalone="no"?>
<!-- Created with Inkscape (http://www.inkscape.org/) -->

<svg
   xmlns:dc="http://purl.org/dc/elements/1.1/"
   xmlns:cc="http://creativecommons.org/ns#"
   xmlns:rdf="http://www.w3.org/1999/02/22-rdf-syntax-ns#"
   xmlns:svg="http://www.w3.org/2000/svg"
   xmlns="http://www.w3.org/2000/svg"
   xmlns:sodipodi="http://sodipodi.sourceforge.net/DTD/sodipodi-0.dtd"
   xmlns:inkscape="http://www.inkscape.org/namespaces/inkscape"
   width="744.09448"
   height="744.09003"
   id="svg2"
   version="1.1"
   inkscape:version="0.92.1 r15371"
   sodipodi:docname="buttons.svg">
  <defs
     id="defs4">
    <symbol
       id="*Paper_Space0" />
    <symbol
       id="*Paper_Space" />
    <symbol
       id="*Model_Space" />
    <marker
       orient="auto"
       id="DistanceX"
       style="overflow:visible"
       refX="0"
       refY="0">
      <path
         id="path2992"
         d="M 3,-3 -3,3 M 0,-5 0,5"
         style="stroke:#000000;stroke-width:0.5"
         inkscape:connector-curvature="0" />
    </marker>
  </defs>
  <sodipodi:namedview
     id="base"
     pagecolor="#ffffff"
     bordercolor="#666666"
     borderopacity="1.0"
     inkscape:pageopacity="0.0"
     inkscape:pageshadow="2"
     inkscape:zoom="0.49497475"
     inkscape:cx="237.64079"
     inkscape:cy="216.78118"
     inkscape:document-units="px"
     inkscape:current-layer="g2997"
     showgrid="false"
     inkscape:window-width="1440"
     inkscape:window-height="811"
     inkscape:window-x="0"
     inkscape:window-y="31"
     inkscape:window-maximized="1" />
  <metadata
     id="metadata7">
    <rdf:RDF>
      <cc:Work
         rdf:about="">
        <dc:format>image/svg+xml</dc:format>
        <dc:type
           rdf:resource="http://purl.org/dc/dcmitype/StillImage" />
        <dc:title></dc:title>
      </cc:Work>
    </rdf:RDF>
  </metadata>
  <g
     inkscape:label="Layer 1"
     inkscape:groupmode="layer"
     id="layer1"
     transform="translate(0,-308.27218)">
    <g
       id="g2997"
       inkscape:label="0"
       transform="translate(2.9527747,160.33849)">
      <path
         inkscape:connector-curvature="0"
         id="path3409"
         style="fill:#2ca05a;stroke:#000000;stroke-width:0.12149502;stroke-opacity:1"
         d="m 176.34462,747.40334 c 0.11191,-0.99121 0.63115,-1.93024 1.41113,-2.55198 0.77998,-0.62175 1.81109,-0.91856 2.80223,-0.80664 0.5795,0.009 1.1186,-0.49695 1.14715,-1.07585 0.0285,-0.5789 -0.45818,-1.13509 -1.03572,-1.18352 -1.08655,-0.12198 -2.12085,-0.66204 -2.84198,-1.48394 -0.72114,-0.8219 -1.12214,-1.91769 -1.10183,-3.01095 -0.006,-0.99748 0.39845,-1.99134 1.09942,-2.70098 0.70098,-0.70964 1.68975,-1.12632 2.68717,-1.13242 0.57645,-0.06 1.05198,-0.62577 1.01186,-1.20399 -0.0401,-0.57821 -0.58921,-1.07293 -1.16842,-1.05271 -1.09335,0.007 -2.18426,-0.40653 -2.99754,-1.13736 -0.81328,-0.73084 -1.34105,-1.77151 -1.45018,-2.85949 -0.12402,-0.98977 0.16014,-2.02449 0.77227,-2.81206 0.61212,-0.78758 1.54467,-1.31829 2.53437,-1.44232 0.56533,-0.12772 0.97062,-0.74581 0.8624,-1.31523 -0.10822,-0.56941 -0.71198,-0.99571 -1.28475,-0.90711 -1.0848,0.13667 -2.21701,-0.14532 -3.11101,-0.77483 -0.894,-0.62951 -1.54114,-1.60046 -1.77818,-2.66789 -0.2402,-0.96815 -0.0804,-2.02923 0.43428,-2.88367 0.51469,-0.85444 1.37793,-1.49174 2.34601,-1.73196 0.54625,-0.19369 0.87558,-0.85538 0.70078,-1.408 -0.17479,-0.55261 -0.82473,-0.90451 -1.38299,-0.74879 -1.06103,0.26402 -2.21864,0.11793 -3.18081,-0.40142 -0.96218,-0.51935 -1.71961,-1.40693 -2.08122,-2.43884 -0.35302,-0.93294 -0.31984,-2.00547 0.0902,-2.91479 0.41002,-0.90933 1.19183,-1.64425 2.12471,-1.9973 0.51951,-0.25695 0.76825,-0.95293 0.52932,-1.48098 -0.23892,-0.52806 -0.92589,-0.80061 -1.46182,-0.57997 -1.02235,0.38767 -2.18911,0.37952 -3.20595,-0.0224 -1.01685,-0.4019 -1.87393,-1.19366 -2.35505,-2.17555 -0.46087,-0.88463 -0.55476,-1.95356 -0.25516,-2.905 0.2996,-0.95144 0.98901,-1.77368 1.87359,-2.23459 0.48546,-0.31659 0.65016,-1.03711 0.35046,-1.5332 -0.2997,-0.49609 -1.01408,-0.68547 -1.52015,-0.40299 -0.96933,0.50587 -2.12887,0.63579 -3.18611,0.35699 -1.05723,-0.27881 -2.00194,-0.96364 -2.5958,-1.88173 -0.56226,-0.82392 -0.78191,-1.87423 -0.59694,-2.85444 0.18498,-0.9802 0.77231,-1.87821 1.59617,-2.44051 0.44463,-0.37178 0.52297,-1.10675 0.1667,-1.56391 -0.35627,-0.45717 -1.08806,-0.56072 -1.55717,-0.22034 -0.9027,0.61698 -2.03873,0.88313 -3.12152,0.73134 -1.08279,-0.1518 -2.10186,-0.72008 -2.80013,-1.56149 -0.65576,-0.75163 -0.99808,-1.76859 -0.93032,-2.76379 0.0677,-0.9952 0.54475,-1.95638 1.29633,-2.61218 0.39753,-0.42177 0.3884,-1.16083 -0.0194,-1.57265 -0.40784,-0.41181 -1.14673,-0.42808 -1.57229,-0.0346 -0.8234,0.71941 -1.91998,1.11806 -3.01312,1.09542 -1.09314,-0.0226 -2.17226,-0.46642 -2.96515,-1.21933 -0.74004,-0.66879 -1.20023,-1.63813 -1.25065,-2.63436 -0.0504,-0.99623 0.30956,-2.00708 0.9783,-2.74717 0.34485,-0.46583 0.24836,-1.19861 -0.20531,-1.55929 -0.45367,-0.36068 -1.18928,-0.28945 -1.56532,0.15158 -0.73254,0.81175 -1.77427,1.33732 -2.86242,1.44412 -1.08815,0.1068 -2.21218,-0.2062 -3.08854,-0.86005 -0.81395,-0.57656 -1.38555,-1.48466 -1.55343,-2.46793 -0.16789,-0.98327 0.07,-2.02961 0.64653,-2.84361 0.28735,-0.50335 0.10489,-1.21958 -0.38826,-1.52407 -0.49315,-0.3045 -1.21518,-0.14675 -1.53643,0.33568 -0.63139,0.8927 -1.60365,1.53779 -2.67153,1.77255 -1.06788,0.23476 -2.22104,0.0569 -3.16858,-0.4887 -0.87642,-0.47624 -1.55141,-1.31035 -1.8344,-2.26687 -0.28299,-0.95651 -0.17051,-2.02364 0.3057,-2.90012 0.22581,-0.53381 -0.0401,-1.22344 -0.56578,-1.46747 -0.5257,-0.24403 -1.22402,-0.002 -1.48595,0.51507 -0.52138,0.96112 -1.41054,1.71669 -2.44316,2.0761 -1.03262,0.35942 -2.19872,0.31921 -3.20413,-0.11048 -0.92659,-0.36923 -1.69549,-1.11766 -2.08961,-2.03399 -0.39413,-0.91633 -0.40864,-1.98927 -0.0394,-2.91592 0.16108,-0.55677 -0.1845,-1.2101 -0.73537,-1.39024 -0.55086,-0.18013 -1.21565,0.14281 -1.4146,0.6872 -0.40405,1.01604 -1.19761,1.87148 -2.18047,2.35051 -0.98287,0.47904 -2.14554,0.57703 -3.19471,0.26928 -0.96376,-0.25705 -1.81577,-0.90927 -2.3155,-1.77255 -0.49974,-0.86328 -0.64103,-1.92697 -0.38401,-2.89079 0.0941,-0.57191 -0.32632,-1.17977 -0.89462,-1.29348 -0.5683,-0.11371 -1.19022,0.28558 -1.3234,0.84967 -0.28106,1.05671 -0.96787,2 -1.88718,2.59193 -0.91932,0.59192 -2.06224,0.82675 -3.14044,0.64525 -0.98739,-0.14124 -1.91056,-0.68812 -2.508878,-1.48622 -0.59833,-0.79811 -0.86443,-1.83763 -0.7232,-2.82509 0.0258,-0.57903 -0.46355,-1.13291 -1.04132,-1.1786 -0.57776,-0.0457 -1.14809,0.42438 -1.21361,1.00027 -0.15412,1.08252 -0.72455,2.10043 -1.56741,2.79694 -0.84286,0.69651 -1.94998,1.06488 -3.04209,1.01218 -0.99716,-0.0235 -1.97853,-0.4573 -2.66704,-1.17904 -0.68851,-0.72174 -1.0757,-1.72248 -1.05222,-2.71971 -0.0429,-0.57802 -0.59429,-1.07012 -1.1734,-1.04715 -0.57911,0.023 -1.08984,0.55718 -1.0868,1.13678 -0.025,1.09315 -0.47106,2.17139 -1.22563,2.9627 -0.75456,0.79132 -1.81035,1.28805 -2.90102,1.3649 -0.99294,0.0947 -2.01873,-0.22007 -2.78776,-0.85531 -0.76904,-0.63523 -1.27185,-1.58316 -1.36649,-2.57616 -0.11092,-0.56889 -0.71668,-0.99231 -1.289,-0.90101 -0.57233,0.0913 -1.0163,0.68218 -0.94474,1.25734 0.10445,1.08845 -0.21095,2.21187 -0.86663,3.08689 -0.65569,0.87501 -1.64532,1.49313 -2.71925,1.69845 -0.97478,0.21143 -2.03058,0.0202 -2.86934,-0.51957 -0.83877,-0.53981 -1.45016,-1.42161 -1.66157,-2.39645 -0.17742,-0.55179 -0.829,-0.90059 -1.38652,-0.74224 -0.55752,0.15836 -0.92849,0.79761 -0.7894,1.36028 0.23244,1.06845 0.0521,2.2213 -0.49548,3.16772 -0.5476,0.94643 -1.45718,1.67727 -2.49929,2.00817 -0.94293,0.32524 -2.01394,0.26028 -2.91065,-0.17653 -0.89672,-0.43682 -1.60811,-1.24011 -1.93333,-2.18311 -0.24142,-0.52692 -0.92969,-0.79622 -1.46457,-0.57303 -0.53488,0.22319 -0.82764,0.90184 -0.62298,1.44411 0.35717,1.03346 0.31446,2.19954 -0.11737,3.20409 -0.43183,1.00455 -1.24859,1.83785 -2.24425,2.28969 -0.89785,0.43449 -1.96902,0.49667 -2.9111,0.16898 -0.94209,-0.32768 -1.74348,-1.0412 -2.17794,-1.9391 -0.30205,-0.49467 -1.01733,-0.68066 -1.52206,-0.39578 -0.50472,0.28489 -0.71518,0.9934 -0.44782,1.50766 0.47689,0.98395 0.57238,2.1469 0.26239,3.19548 -0.31,1.04858 -1.02247,1.97263 -1.95771,2.53907 -0.84016,0.53763 -1.89646,0.72608 -2.87068,0.51212 -0.97423,-0.21395 -1.85438,-0.82767 -2.39199,-1.66788 -0.35843,-0.45548 -1.09069,-0.55557 -1.55819,-0.21298 -0.46749,0.34259 -0.59267,1.07103 -0.26637,1.55005 0.58992,0.92064 0.82227,2.06414 0.63847,3.14202 -0.18381,1.07788 -0.782,2.07973 -1.64368,2.75281 -0.77068,0.63323 -1.79728,0.94529 -2.78997,0.84807 -0.99269,-0.0972 -1.93925,-0.60252 -2.57245,-1.37325 -0.40978,-0.40987 -1.14873,-0.42263 -1.57242,-0.0272 -0.42369,0.39547 -0.46185,1.13359 -0.0812,1.57066 0.69465,0.8444 1.06061,1.95238 1.00557,3.04444 -0.055,1.09206 -0.53055,2.15763 -1.30658,2.9279 -0.69038,0.71995 -1.67286,1.15125 -2.67008,1.17213 -0.99723,0.0209 -1.9969,-0.36892 -2.71681,-1.05935 -0.45537,-0.35854 -1.19066,-0.28381 -1.56461,0.159 -0.37395,0.44282 -0.32454,1.18029 0.10514,1.56926 0.78964,0.75631 1.28407,1.81323 1.35857,2.90414 0.0745,1.0909 -0.27165,2.20523 -0.95114,3.06189 -0.60039,0.79656 -1.52497,1.34103 -2.51272,1.47971 -0.98776,0.13869 -2.02651,-0.13013 -2.82302,-0.73056 -0.49458,-0.30214 -1.21585,-0.14096 -1.5348,0.34297 -0.31896,0.48393 -0.18269,1.21037 0.28997,1.54579 0.87354,0.6576 1.4895,1.64862 1.69249,2.72306 0.203,1.07443 -0.009,2.22189 -0.58235,3.15291 -0.50197,0.86197 -1.35567,1.51199 -2.32009,1.76653 -0.96442,0.25454 -2.02768,0.11048 -2.8896,-0.39152 -0.52684,-0.24153 -1.224,0.004 -1.48348,0.52208 -0.2594796,0.51827 -0.0382,1.22349 0.47076,1.50065 0.94518,0.54967 1.67402,1.46088 2.00266,2.50376 0.32864,1.04288 0.25389,2.20735 -0.20538,3.19965 -0.39651,0.91531 -1.16734,1.66173 -2.09489,2.02856 -0.9275396,0.36683 -2.0003796,0.34954 -2.9156196,-0.047 -0.55172,-0.17754 -1.21498,0.14855 -1.41135,0.69388 -0.19637,0.54533 0.10672,1.21945 0.64496,1.43444 1.00355,0.43402 1.83504,1.25262 2.28471,2.24931 0.44967,0.99669 0.51316,2.16183 0.17447,3.20149 -0.28547,0.95578 -0.96262,1.78814 -1.84027,2.26211 -0.87766,0.47396 -1.94501,0.58368 -2.90072,0.29819 -0.56884,-0.11101 -1.18885,0.29124 -1.31934,0.85596 -0.1305,0.56472 0.25017,1.19824 0.81003,1.34808 1.04784,0.31226 1.97031,1.02677 2.53469,1.96328 0.56439,0.93651 0.76524,2.08596 0.55188,3.15838 -0.17043,0.98284 -0.74439,1.88945 -1.55983,2.4639 -0.81544,0.57445 -1.86232,0.80965 -2.84509,0.6392 -0.57798,-0.043 -1.14609,0.4298 -1.20888,1.006 -0.0628,0.5762 0.39014,1.16026 0.96381,1.24281 1.07742,0.18614 2.07791,0.78652 2.74909,1.6497 0.67118,0.86318 1.00656,1.98081 0.92153,3.07094 -0.053,0.99609 -0.51571,1.96423 -1.25749,2.6311 -0.74178,0.66686 -1.75349,1.02424 -2.74952,0.97123 -0.579,0.0257 -1.08721,0.56235 -1.08142,1.14192 0.006,0.57958 0.52462,1.10597 1.10402,1.12009 1.09186,0.0574 2.15634,0.53523 2.92489,1.31296 0.76856,0.77773 1.23376,1.84784 1.27825,2.94038 0.0652,0.99537 -0.27979,2.01145 -0.93749,2.76137 -0.6577,0.74992 -1.62006,1.22446 -2.61536,1.28964 -0.57189,0.094 -1.01306,0.68699 -0.93877,1.26181 0.0743,0.57483 0.65173,1.03614 1.22873,0.98165 1.09099,-0.0722 2.20451,0.27641 3.05965,0.95778 0.85514,0.68137 1.44363,1.68894 1.61702,2.76855 0.18243,0.98068 -0.0399,2.03042 -0.60434,2.85287 -0.5644,0.82246 -1.46387,1.40749 -2.44448,1.58993 -0.55677,0.16099 -0.92473,0.802 -0.78297,1.36401 0.14176,0.562 0.76971,0.95178 1.33622,0.82941 1.0748,-0.2007 2.22172,0.0137 3.15144,0.58916 0.92972,0.57544 1.63325,1.50634 1.9330996,2.55786 0.29713,0.95221 0.20047,2.02089 -0.2626996,2.90433 -0.46316,0.88344 -1.28714,1.57075 -2.23929,1.86791 -0.53381,0.22572 -0.82335,0.90574 -0.61613,1.44703 0.20722,0.54128 0.87685,0.85405 1.4249,0.66555 1.04352,-0.32642 2.2077496,-0.24917 3.1990096,0.21227 0.99124,0.46143 1.79992,1.30258 2.22203,2.31126 0.40766,0.91038 0.43807,1.98299 0.0826,2.91501 -0.35544,0.93202 -1.09234,1.71197 -2.00267,2.11966 -0.50336,0.28729 -0.71044,0.99678 -0.44066,1.50975 0.26979,0.51297 0.97169,0.74434 1.49361,0.49234 0.99759,-0.44755 2.16279,-0.50854 3.20165,-0.1676 1.03886,0.34095 1.94134,1.08055 2.47978,2.03222 0.51247,0.85577 0.66951,1.91726 0.4268,2.88478 -0.24272,0.96752 -0.88221,1.82916 -1.73793,2.34166 -0.46587,0.3448 -0.5876,1.07381 -0.25903,1.55128 0.32856,0.47747 1.05291,0.62419 1.54136,0.31221 0.93766,-0.56239 2.08747,-0.76079 3.15936,-0.54511 1.0719,0.21568 2.05551,0.84333 2.70272,1.72464 0.61008,0.78915 0.89156,1.82461 0.76497,2.81405 -0.12659,0.98944 -0.65969,1.92067 -1.44879,2.53079 -0.42182,0.39747 -0.45648,1.13578 -0.0738,1.57103 0.38272,0.43525 1.11934,0.49527 1.56747,0.12771 0.86456,-0.66937 1.98283,-1.00237 3.07271,-0.91499 1.08988,0.0874 2.14082,0.59429 2.88771,1.39286 0.69913,0.71146 1.10109,1.70636 1.09241,2.70382 -0.009,0.99747 -0.4279,1.98522 -1.13932,2.68439 -0.37184,0.44458 -0.31895,1.1818 0.11257,1.56873 0.43151,0.38693 1.17006,0.35939 1.57157,-0.0586 0.77934,-0.76693 1.85038,-1.22986 2.94294,-1.27201 1.09256,-0.0421 2.19607,0.3369 3.03217,1.04152 0.77836,0.62377 1.29517,1.56414 1.40451,2.55563 0.10934,0.9915 -0.19012,2.0219 -0.81385,2.80031 -0.31666,0.48544 -0.17694,1.21122 0.29731,1.54439 0.47424,0.33318 1.20434,0.21848 1.5536,-0.24405 0.68316,-0.85373 1.69194,-1.44009 2.77185,-1.61117 1.07991,-0.17108 2.22051,0.0748 3.13406,0.67556 0.84667,0.52732 1.47106,1.39997 1.6969,2.37157 0.22583,0.9716 0.0503,2.03019 -0.47696,2.87691 -0.25705,0.51949 -0.0325,1.22369 0.47785,1.49843 0.51033,0.27475 1.22177,0.0745 1.51386,-0.42614 0.5774,-0.92855 1.50975,-1.63011 2.56184,-1.92772 1.0521,-0.29761 2.21377,-0.18839 3.19196,0.30012 0.9031,0.42348 1.62631,1.21614 1.96546,2.15421 0.33916,0.93807 0.29009,2.00999 -0.13337,2.91314 -0.19378,0.54624 0.11249,1.2189 0.65172,1.43136 0.53923,0.21245 1.22198,-0.0705 1.45283,-0.60219 0.46353,-0.99031 1.30636,-1.79723 2.31588,-2.2172 1.00952,-0.41996 2.17595,-0.44891 3.20505,-0.0795 0.94684,0.31369 1.75872,1.01525 2.20643,1.90661 0.44772,0.89137 0.52576,1.96157 0.21209,2.90847 -0.12783,0.56534 0.25585,1.19707 0.81643,1.34425 0.56057,0.14719 1.20507,-0.21459 1.37141,-0.76982 0.34316,-1.0382 1.08465,-1.93914 2.03741,-2.47557 0.95276,-0.53642 2.10758,-0.70313 3.17314,-0.45807 0.97729,0.1995 1.86645,0.8001 2.41644,1.63226 0.55,0.83215 0.75405,1.88561 0.55457,2.86296 -0.0601,0.57649 0.39563,1.1584 0.96967,1.23824 0.57405,0.0798 1.17124,-0.35562 1.27075,-0.92662 0.21797,-1.0715 0.8477,-2.05382 1.73033,-2.69917 0.88264,-0.64535 2.00964,-0.94748 3.09671,-0.83018 0.99402,0.0825 1.94796,0.57372 2.59251,1.33498 0.64455,0.76126 0.97176,1.78319 0.88927,2.77727 0.009,0.57955 0.52985,1.10348 1.10931,1.11485 0.57946,0.0114 1.12095,-0.49165 1.15224,-1.07041 0.0897,-1.08976 0.59885,-2.13968 1.39896,-2.8849 0.80012,-0.74522 1.88348,-1.17853 2.97679,-1.19063 0.9968,-0.0356 2.00215,0.33929 2.7322,1.01897 0.73006,0.67968 1.17583,1.65573 1.21149,2.6526 0.077,0.57446 0.656628,1.03304 1.233358,0.97581 0.57674,-0.0572 1.05494,-0.62079 1.01756,-1.19919 -0.0398,-1.09272 0.3416,-2.19548 1.04797,-3.03011 0.70636,-0.83463 1.73087,-1.39304 2.81507,-1.53437 0.98559,-0.15331 2.02822,0.10008 2.83354,0.68864 0.80531,0.58856 1.36339,1.50503 1.51669,2.49069 0.14442,0.56132 0.77419,0.94812 1.34011,0.82307 0.56592,-0.12505 0.97411,-0.7412 0.8686,-1.31112 -0.16875,-1.08034 0.0795,-2.22048 0.68225,-3.1328 0.6027,-0.91232 1.55398,-1.58799 2.61385,-1.85657 0.96055,-0.26881 2.02582,-0.14051 2.89509,0.34866 0.86927,0.48917 1.53182,1.3332 1.80061,2.2938 0.2098,0.54029 0.88089,0.84987 1.42804,0.65877 0.54715,-0.1911 0.87961,-0.8512 0.70745,-1.40463 -0.29533,-1.0528 -0.18362,-2.21431 0.30696,-3.19151 0.49057,-0.97721 1.35526,-1.76065 2.37594,-2.15272 0.92201,-0.38053 1.99498,-0.37913 2.916,0.004 0.92102,0.38292 1.67874,1.14266 2.05925,2.06473 0.27221,0.51169 0.97522,0.73973 1.49594,0.48525 0.52072,-0.25449 0.77277,-0.94929 0.53635,-1.47848 -0.41777,-1.01048 -0.44421,-2.17704 -0.0726,-3.20542 0.37156,-1.02837 1.13752,-1.90859 2.10467,-2.41863 0.87053,-0.48691 1.93614,-0.61244 2.89598,-0.34115 0.95984,0.2713 1.8021,0.93608 2.28898,1.80667 0.33082,0.47591 1.05587,0.61921 1.54284,0.30492 0.48697,-0.31429 0.65508,-1.03404 0.35772,-1.53155 -0.53433,-0.95397 -0.69855,-2.10922 -0.45122,-3.17432 0.24734,-1.06511 0.90383,-2.02975 1.80386,-2.6506 0.80684,-0.58646 1.85012,-0.83715 2.83531,-0.68129 0.98519,0.15586 1.90015,0.71635 2.48658,1.52324 0.38479,0.43343 1.12168,0.48995 1.56805,0.12027 0.44638,-0.36968 0.52819,-1.10424 0.1741,-1.56309 -0.64341,-0.88408 -0.9431,-2.01179 -0.82346,-3.09868 0.11963,-1.08688 0.65743,-2.1224 1.47772,-2.84535 0.73182,-0.67778 1.73813,-1.05011 2.73484,-1.01187 0.9967,0.0382 1.97153,0.48658 2.64927,1.21844 0.43334,0.3849 1.17177,0.35388 1.5713,-0.066 0.39953,-0.41989 0.39389,-1.159 -0.012,-1.57274 -0.74345,-0.80177 -1.17441,-1.88612 -1.18415,-2.97952 -0.01,-1.09341 0.4018,-2.18527 1.13084,-3.00017 0.64652,-0.75959 1.60173,-1.24833 2.59597,-1.32825 0.99423,-0.0799 2.01524,0.24996 2.77478,0.89653 0.47582,0.33093 1.20539,0.21278 1.55245,-0.25142 0.34706,-0.4642 0.25406,-1.19744 -0.19792,-1.56027 -0.83305,-0.70821 -1.38922,-1.73398 -1.52821,-2.81855 -0.13899,-1.08458 0.14054,-2.21746 0.76809,-3.11287 0.55215,-0.83072 1.44285,-1.42902 2.42066,-1.62598 0.9778,-0.19696 2.03066,0.01 2.86133,0.56203 0.51162,0.27234 1.2221,0.0687 1.51183,-0.43327 0.28973,-0.50199 0.11065,-1.21909 -0.38106,-1.52591 -0.91096,-0.6047 -1.58455,-1.55749 -1.85083,-2.61801 -0.26628,-1.06052 -0.12269,-2.21852 0.39454,-3.18186 0.45003,-0.8902 1.26373,-1.58965 2.21138,-1.90088 0.94764,-0.31124 2.01757,-0.23042 2.90772,0.21964 0.54022,0.20989 1.22161,-0.0763 1.44993,-0.60906 0.22833,-0.53273 -0.0343,-1.2236 -0.55881,-1.47012 -0.97608,-0.4927 -1.75762,-1.35913 -2.14746,-2.38072 -0.38984,-1.02158 -0.3842,-2.18843 0.0155,-3.2062 0.34159,-0.93718 1.06686,-1.72797 1.97104,-2.14911 0.90419,-0.42113 1.97617,-0.46743 2.91329,-0.12582 0.56126,0.14451 1.204,-0.2203 1.36772,-0.77629 0.16372,-0.55599 -0.17875,-1.21094 -0.72875,-1.3937 -1.0275,-0.37379 -1.90602,-1.1417 -2.41394,-2.11 -0.50792,-0.9683 -0.64032,-2.12763 -0.36381,-3.18553 0.22835,-0.97101 0.85501,-1.84203 1.70304,-2.36716 0.84803,-0.52513 1.90701,-0.69789 2.87796,-0.46952 0.57441,0.0771 1.16951,-0.36117 1.26632,-0.93262 0.0968,-0.57146 -0.32071,-1.18131 -0.88847,-1.29772 -1.0645,-0.24964 -2.02767,-0.90824 -2.64654,-1.80967 -0.61887,-0.90143 -0.88745,-2.03696 -0.73799,-3.12014"
         sodipodi:nodetypes="cscscscscscscscscscscscscscscscscscscscscscscscscscscscscscscscscscscscscscscscscscscscscscscscscscscscscscscscscscscscscscscscscscscscscscscscscscscscscscscscscscscscscscscscscscscscscscscscscscscscscscscscscscscscscscscscscscscscscscscscscscscscscscscscscscscscscscscscscscscscscscscscscscscscscscscscscscscscscscscsc"
         inkscape:export-filename="/home/cwc/https/icebowl.github.io/img/chainring.png"
         inkscape:export-xdpi="96"
         inkscape:export-ydpi="96" />
      <g
         id="g3607"
         style="fill:#ffffff"
         transform="matrix(0.24299005,0,0,0.2430055,0.1804724,649.45452)"
         inkscape:export-filename="/home/cwc/https/icebowl.github.io/img/chainring.png"
         inkscape:export-xdpi="96"
         inkscape:export-ydpi="96">
        <path
           sodipodi:nodetypes="cssscsssc"
           inkscape:connector-curvature="0"
           d="m 172.32349,300.80302 c 0.002,-4.60686 -1.89272,-9.18621 -5.14948,-12.44453 -3.25676,-3.25831 -7.83521,-5.1554 -12.44207,-5.1554 -4.60686,0 -9.18531,1.89709 -12.44207,5.1554 -3.25676,3.25832 -5.15168,7.83767 -5.14948,12.44453 -0.002,4.60686 1.89272,9.18621 5.14948,12.44453 3.25676,3.25831 7.83521,5.1554 12.44207,5.1554 4.60686,0 9.18531,-1.89709 12.44207,-5.1554 3.25676,-3.25832 5.15168,-7.83767 5.14948,-12.44453 z"
           style="fill:#ffffff;stroke:#000000;stroke-width:0.49998412"
           id="path2999" />
        <path
           sodipodi:nodetypes="cssscsssc"
           inkscape:connector-curvature="0"
           d="m 528.73125,559.74842 c 0.002,-4.60686 -1.89272,-9.18621 -5.14948,-12.44453 -3.25676,-3.25831 -7.83521,-5.1554 -12.44207,-5.1554 -4.60686,0 -9.18531,1.89709 -12.44207,5.1554 -3.25676,3.25832 -5.15168,7.83767 -5.14948,12.44453 -0.002,4.60686 1.89272,9.18621 5.14948,12.44453 3.25676,3.25831 7.83521,5.1554 12.44207,5.1554 4.60686,0 9.18531,-1.89709 12.44207,-5.1554 3.25676,-3.25832 5.15168,-7.83767 5.14948,-12.44453 z"
           style="fill:#ffffff;stroke:#000000;stroke-width:0.49998412"
           id="path3001" />
        <path
           sodipodi:nodetypes="cssscsssc"
           inkscape:connector-curvature="0"
           style="fill:#ffffff;stroke:#000000;stroke-width:0.49998412"
           d="m 392.5956,140.76597 c 0.002,-4.60686 -1.89272,-9.18621 -5.14948,-12.44453 -3.25676,-3.25831 -7.83521,-5.1554 -12.44207,-5.1554 -4.60686,0 -9.18531,1.89709 -12.44207,5.1554 -3.25676,3.25832 -5.15168,7.83767 -5.14948,12.44453 -0.002,4.60686 1.89272,9.18621 5.14948,12.44453 3.25676,3.25831 7.83521,5.1554 12.44207,5.1554 4.60686,0 9.18531,-1.89709 12.44207,-5.1554 3.25676,-3.25832 5.15168,-7.83767 5.14948,-12.44453 z"
           id="path3003" />
        <path
           sodipodi:nodetypes="cssscsssc"
           inkscape:connector-curvature="0"
           d="m 612.86771,300.80302 c 0.002,-4.60686 -1.89272,-9.18621 -5.14948,-12.44453 -3.25676,-3.25831 -7.83521,-5.1554 -12.44207,-5.1554 -4.60686,0 -9.18531,1.89709 -12.44207,5.1554 -3.25676,3.25832 -5.15168,7.83767 -5.14948,12.44453 -0.002,4.60686 1.89272,9.18621 5.14948,12.44453 3.25676,3.25831 7.83521,5.1554 12.44207,5.1554 4.60686,0 9.18531,-1.89709 12.44207,-5.1554 3.25676,-3.25832 5.15168,-7.83767 5.14948,-12.44453 z"
           style="fill:#ffffff;stroke:#000000;stroke-width:0.49998412"
           id="path3005" />
        <path
           sodipodi:nodetypes="cssscsssc"
           inkscape:connector-curvature="0"
           style="fill:#ffffff;stroke:#000000;stroke-width:0.49998412"
           d="m 256.45995,559.74842 c 0.002,-4.60686 -1.89272,-9.18621 -5.14948,-12.44453 -3.25676,-3.25831 -7.83521,-5.1554 -12.44207,-5.1554 -4.60686,0 -9.18531,1.89709 -12.44207,5.1554 -3.25676,3.25832 -5.15168,7.83767 -5.14948,12.44453 -0.002,4.60686 1.89272,9.18621 5.14948,12.44453 3.25676,3.25831 7.83521,5.1554 12.44207,5.1554 4.60686,0 9.18531,-1.89709 12.44207,-5.1554 3.25676,-3.25832 5.15168,-7.83767 5.14948,-12.44453 z"
           id="path3007" />
        <path
           inkscape:connector-curvature="0"
           style="fill:#ffffff;stroke:#000000;stroke-width:0.49998412"
           d="m 142.93645,561.99695 a 4.145627,4.145627 0 0 0 -3.813,0.94072"
           id="path3037" />
        <path
           sodipodi:nodetypes="cccsccccc"
           inkscape:connector-curvature="0"
           d="m 142.93645,561.99695 c 18.18294,4.67332 37.12896,6.36368 55.85203,4.9831 l 45.5876,33.12134 c 4.47274,18.23332 11.93501,35.72971 21.99844,51.57858 0.73103,1.1513 0.84116,2.67247 0.2836,3.91707 -1.70054,3.79595 -6.1086,6.17276 -10.21453,5.50765 -24.84967,-5.06025 -48.58237,-15.53422 -69.06838,-30.48198 -20.54669,-14.86424 -37.84183,-34.19875 -50.33339,-56.26848 -1.90137,-3.69944 -1.00304,-8.62624 2.08163,-11.41656"
           style="fill:#ffffff;stroke:#000000;stroke-width:0.49998412"
           id="path3043" />
        <path
           sodipodi:nodetypes="cccssccccc"
           inkscape:connector-curvature="0"
           d="m 493.56451,661.10469 c 24.84967,-5.06025 48.58237,-15.53422 69.06838,-30.48198 20.54669,-14.86424 37.84183,-34.19875 50.33339,-56.26848 1.90137,-3.69944 1.00304,-8.62624 -2.08163,-11.41656 -1.01139,-0.91488 -2.49214,-1.2802 -3.813,-0.94072 -18.18294,4.67332 -37.12896,6.36368 -55.85203,4.9831 l -45.5876,33.12134 c -4.47274,18.23332 -11.93501,35.72971 -21.99844,51.57858 -0.73103,1.1513 -0.84116,2.67247 -0.2836,3.91707 1.70054,3.79595 6.1086,6.17276 10.21453,5.50765 z"
           style="fill:#ffffff;stroke:#000000;stroke-width:0.49998412"
           id="path3059" />
        <path
           sodipodi:nodetypes="cccccccccc"
           inkscape:connector-curvature="0"
           d="m 677.84612,356.85147 c 4.13566,-0.44429 7.75831,-3.90213 8.39455,-8.01264 2.86638,-25.19714 0.23886,-51.00492 -7.64678,-75.10738 -7.78745,-24.13437 -20.83117,-46.55771 -37.96063,-65.25781 -2.93082,-2.9515 -7.89408,-3.61961 -11.50105,-1.54817 -1.18264,0.67917 -1.98766,1.97456 -2.07296,3.33568 -1.17425,18.73714 -5.42127,37.27823 -8.97064,45.96826 l 13.86354,62.28149 c 15.95876,9.88823 30.29285,22.39195 42.25625,36.86041 0.86905,1.05102 2.28174,1.62583 3.63772,1.48016 z"
           style="fill:#ffffff;stroke:#000000;stroke-width:0.49998412"
           id="path3075" />
        <path
           inkscape:connector-curvature="0"
           style="fill:#ffffff;stroke:#000000;stroke-width:0.49998412"
           d="m 451.29298,82.559477 a 4.145627,4.145627 0 0 0 2.53183,-3.00228"
           id="path3085" />
        <path
           sodipodi:nodetypes="cccsccccc"
           inkscape:connector-curvature="0"
           d="m 451.29298,82.559477 c -17.45722,6.906872 -33.77844,16.675537 -48.11424,28.797593 h -56.34938 c -14.3358,-12.122055 -30.65701,-21.89072 -48.11423,-28.797593 -1.26814,-0.501733 -2.25136,-1.667648 -2.53184,-3.00228 -0.85544,-4.07054 1.31369,-8.584423 5.02641,-10.459742 23.07815,-10.512436 48.43475,-15.988549 73.79435,-15.936929 25.3596,-0.05162 50.7162,5.424493 73.79435,15.936929 3.71272,1.875319 5.88185,6.389202 5.02641,10.459742"
           style="fill:#ffffff;stroke:#000000;stroke-width:0.49998412"
           id="path3091" />
        <path
           sodipodi:nodetypes="csccsccsccsccsccsccsccsccsccscc"
           inkscape:connector-curvature="0"
           d="m 560.63302,286.26909 c 21.86176,-12.96493 38.25173,-34.8497 44.54274,-59.47589 6.29101,-24.62618 2.4056,-51.69051 -10.55933,-73.55227 -20.56115,-25.77957 -48.19705,-45.85823 -79.06862,-57.446717 -24.79816,-5.574723 -51.73852,-0.906636 -73.21538,12.686387 -21.47687,13.59302 -37.22575,36.3007 -42.984,61.51836 l -49.21807,-0.735 C 344.90142,144.42416 329.15254,122.07362 307.67567,108.4806 286.19881,94.887577 259.25845,90.21949 234.46029,95.794213 203.58872,107.3827 175.95282,127.46136 155.39167,153.24093 c -12.96493,21.86176 -16.85034,48.92609 -10.55933,73.55227 6.29101,24.62619 22.68098,46.51096 44.54274,59.47589 L 174.216,332.92395 c -25.30713,-2.36118 -51.43043,5.71019 -70.99488,21.93543 -19.564448,16.22524 -32.329092,40.40453 -34.690269,65.71166 1.481465,32.94166 12.037439,65.42961 30.201527,92.95075 16.785392,19.08603 41.324432,31.14462 66.689362,32.77142 25.36493,1.6268 51.24336,-7.19822 70.32939,-23.98361 l 39.68699,28.83429 c -10.06594,23.33887 -10.46216,50.6778 -1.07679,74.29857 9.38538,23.62077 28.43675,43.23247 51.77562,53.29842 31.78717,8.77057 65.94703,8.77057 97.7342,0 23.33887,-10.06595 42.39024,-29.67765 51.77562,-53.29842 9.38537,-23.62077 8.98915,-50.9597 -1.07679,-74.29857 l 39.68699,-28.83429 c 19.08603,16.78539 44.96446,25.61041 70.32939,23.98361 25.36493,-1.6268 49.90397,-13.68539 66.68936,-32.77142 18.16409,-27.52114 28.72006,-60.00909 30.20153,-92.95075 -2.36118,-25.30713 -15.12582,-49.48642 -34.69027,-65.71166 -19.56445,-16.22524 -45.68775,-24.29661 -70.99488,-21.93543 l -15.15908,-46.65486"
           style="fill:#ffffff;stroke:#000000;stroke-width:0.49998412"
           id="path3439" />
        <path
           sodipodi:nodetypes="csccccccccc"
           inkscape:connector-curvature="0"
           d="m 72.161984,356.85147 c 1.355982,0.14567 2.768665,-0.42914 3.63772,-1.48016 11.963401,-14.46846 26.297486,-26.97218 42.256246,-36.86041 l 17.41292,-53.59145 c -7.09875,-17.38007 -11.34577,-35.92116 -12.52002,-54.6583 m 0,0 c -0.0853,-1.36111 -0.89031,-2.6565 -2.07295,-3.33568 -3.60697,-2.07144 -8.57023,-1.40333 -11.50106,1.54817 -17.129458,18.7001 -30.173173,41.12344 -37.960626,65.25781 -7.885643,24.10246 -10.513169,49.91024 -7.646787,75.10738 0.636241,4.11051 4.258897,7.56835 8.394557,8.01264"
           style="fill:#ffffff;stroke:#000000;stroke-width:0.49998412"
           id="path3455" />
      </g>
      <flowRoot
         xml:space="preserve"
         id="flowRoot845"
         style="fill:black;stroke:none;stroke-opacity:1;stroke-width:1px;stroke-linejoin:miter;stroke-linecap:butt;fill-opacity:1;font-family:Karla;font-style:normal;font-weight:normal;font-size:40px;line-height:125%;letter-spacing:0px;word-spacing:0px;-inkscape-font-specification:Karla;font-stretch:normal;font-variant:normal;"><flowRegion
           id="flowRegion847"
           style="-inkscape-font-specification:Karla;font-family:Karla;font-weight:normal;font-style:normal;font-stretch:normal;font-variant:normal;"><rect
             id="rect849"
             width="258.59906"
             height="254.55844"
             x="-579.82758"
             y="184.46552"
             style="-inkscape-font-specification:Karla;font-family:Karla;font-weight:normal;font-style:normal;font-stretch:normal;font-variant:normal;" /></flowRegion><flowPara
           id="flowPara851" /></flowRoot>    </g>
    <g
       transform="matrix(18.189987,0,0,18.2833,-5714.5012,-7488.6094)"
       inkscape:transform-center-x="48.805243"
       inkscape:transform-center-y="-8.877593e-05"
       style="font-size:40px;font-style:normal;font-variant:normal;font-weight:normal;font-stretch:normal;text-align:start;line-height:125%;letter-spacing:0px;word-spacing:0px;writing-mode:lr-tb;text-anchor:start;fill:none;stroke:#000000;stroke-width:0.05483484;stroke-miterlimit:4;stroke-opacity:1;font-family:Utsaah;-inkscape-font-specification:Utsaah"
       id="flowRoot3704" />
  </g>
</svg>
