<?xml version="1.0" encoding="UTF-8" standalone="no"?>
<!-- Created with Inkscape (http://www.inkscape.org/) -->

<svg
   xmlns:dc="http://purl.org/dc/elements/1.1/"
   xmlns:cc="http://creativecommons.org/ns#"
   xmlns:rdf="http://www.w3.org/1999/02/22-rdf-syntax-ns#"
   xmlns:svg="http://www.w3.org/2000/svg"
   xmlns="http://www.w3.org/2000/svg"
   xmlns:sodipodi="http://sodipodi.sourceforge.net/DTD/sodipodi-0.dtd"
   xmlns:inkscape="http://www.inkscape.org/namespaces/inkscape"
   width="744.09448"
   height="744.09003"
   id="svg2"
   version="1.1"
   inkscape:version="0.92.3 (2405546, 2018-03-11)"
   sodipodi:docname="buttons.svg">
  <defs
     id="defs4">
    <symbol
       id="*Paper_Space0" />
    <symbol
       id="*Paper_Space" />
    <symbol
       id="*Model_Space" />
    <marker
       orient="auto"
       id="DistanceX"
       style="overflow:visible"
       refX="0"
       refY="0">
      <path
         id="path2992"
         d="M 3,-3 -3,3 M 0,-5 0,5"
         style="stroke:#000000;stroke-width:0.5"
         inkscape:connector-curvature="0" />
    </marker>
  </defs>
  <sodipodi:namedview
     id="base"
     pagecolor="#ffffff"
     bordercolor="#666666"
     borderopacity="1.0"
     inkscape:pageopacity="0.0"
     inkscape:pageshadow="2"
     inkscape:zoom="0.7"
     inkscape:cx="221.99657"
     inkscape:cy="313.75229"
     inkscape:document-units="px"
     inkscape:current-layer="g2997"
     showgrid="false"
     inkscape:window-width="1680"
     inkscape:window-height="941"
     inkscape:window-x="0"
     inkscape:window-y="31"
     inkscape:window-maximized="1" />
  <metadata
     id="metadata7">
    <rdf:RDF>
      <cc:Work
         rdf:about="">
        <dc:format>image/svg+xml</dc:format>
        <dc:type
           rdf:resource="http://purl.org/dc/dcmitype/StillImage" />
        <dc:title />
      </cc:Work>
    </rdf:RDF>
  </metadata>
  <g
     inkscape:label="Layer 1"
     inkscape:groupmode="layer"
     id="layer1"
     transform="translate(0,-308.27218)">
    <g
       id="g2997"
       inkscape:label="0"
       transform="translate(2.9527747,160.33849)">
      <path
         inkscape:connector-curvature="0"
         id="path3409"
         style="fill:#2ca05a;stroke:#000000;stroke-width:0.10385859;stroke-opacity:1"
         d="m 349.87762,597.32411 c 0.0956,-0.84732 0.53954,-1.65005 1.20629,-2.18154 0.66676,-0.53148 1.54819,-0.78521 2.39545,-0.68954 0.49538,0.007 0.95623,-0.4248 0.98063,-0.91968 0.0244,-0.49486 -0.39167,-0.97031 -0.88537,-1.01171 -0.92883,-0.10428 -1.81299,-0.56594 -2.42944,-1.26853 -0.61645,-0.7026 -0.95925,-1.63931 -0.94189,-2.57388 -0.005,-0.85268 0.34062,-1.70228 0.93983,-2.3089 0.59923,-0.60663 1.44447,-0.96282 2.2971,-0.96803 0.49277,-0.0513 0.89927,-0.53493 0.86498,-1.02922 -0.0342,-0.49427 -0.50368,-0.91719 -0.99881,-0.8999 -0.93464,0.006 -1.86719,-0.34752 -2.56242,-0.97226 -0.69522,-0.62474 -1.14637,-1.51435 -1.23967,-2.4444 -0.10601,-0.8461 0.1369,-1.73061 0.66017,-2.40385 0.52327,-0.67325 1.32045,-1.12693 2.16648,-1.23296 0.48326,-0.10917 0.82973,-0.63754 0.73721,-1.1243 -0.0925,-0.48676 -0.60863,-0.85117 -1.09826,-0.77543 -0.92732,0.11683 -1.89517,-0.12423 -2.6594,-0.66236 -0.76423,-0.53813 -1.31743,-1.36813 -1.52006,-2.28061 -0.20534,-0.82761 -0.0687,-1.73467 0.37124,-2.46508 0.43998,-0.7304 1.17791,-1.27519 2.00546,-1.48054 0.46696,-0.16558 0.74848,-0.73121 0.59905,-1.20361 -0.14941,-0.4724 -0.705,-0.77321 -1.18223,-0.6401 -0.90701,0.2257 -1.89658,0.10085 -2.71908,-0.34314 -0.8225,-0.44396 -1.46998,-1.2027 -1.77911,-2.08482 -0.30177,-0.79752 -0.2734,-1.71435 0.0771,-2.49167 0.3505,-0.77734 1.01883,-1.40558 1.81629,-1.70737 0.44409,-0.21965 0.65673,-0.8146 0.45248,-1.266 -0.20424,-0.4514 -0.79148,-0.68439 -1.24962,-0.49578 -0.87395,0.33139 -1.87133,0.32443 -2.74057,-0.0191 -0.86924,-0.34356 -1.60191,-1.02039 -2.01319,-1.85974 -0.39396,-0.75621 -0.47423,-1.66998 -0.21811,-2.4833 0.2561,-0.81334 0.84544,-1.51622 1.60161,-1.91022 0.41499,-0.27064 0.55578,-0.88656 0.29959,-1.31064 -0.2562,-0.42407 -0.86688,-0.58596 -1.29948,-0.34449 -0.82862,0.43243 -1.81985,0.5435 -2.72361,0.30517 -0.90376,-0.23834 -1.71134,-0.82375 -2.21899,-1.60858 -0.48065,-0.70431 -0.66841,-1.60216 -0.51029,-2.44008 0.15813,-0.83791 0.6602,-1.60557 1.36446,-2.08624 0.3801,-0.31782 0.44706,-0.94609 0.14251,-1.33689 -0.30456,-0.39081 -0.93012,-0.47933 -1.33113,-0.18835 -0.77167,0.52742 -1.74278,0.75493 -2.66839,0.62518 -0.92562,-0.12977 -1.79675,-0.61556 -2.39367,-1.33483 -0.56056,-0.64252 -0.85319,-1.51186 -0.79527,-2.3626 0.0579,-0.85072 0.46568,-1.67238 1.10816,-2.23298 0.33982,-0.36055 0.33202,-0.99233 -0.0166,-1.34436 -0.34864,-0.35204 -0.98028,-0.36594 -1.34406,-0.0296 -0.70388,0.61498 -1.64127,0.95576 -2.57573,0.9364 -0.93446,-0.0194 -1.85693,-0.39871 -2.53473,-1.04232 -0.63261,-0.57172 -1.02599,-1.40034 -1.06909,-2.25196 -0.0431,-0.85161 0.26462,-1.71573 0.83628,-2.34838 0.29479,-0.39821 0.21231,-1.02462 -0.17551,-1.33294 -0.38781,-0.30832 -1.01664,-0.24744 -1.3381,0.12958 -0.62619,0.69391 -1.5167,1.14318 -2.44689,1.23448 -0.93019,0.0913 -1.89106,-0.17627 -2.64021,-0.7352 -0.69579,-0.49286 -1.18442,-1.26914 -1.32793,-2.10968 -0.14352,-0.84054 0.0598,-1.73499 0.55267,-2.43083 0.24565,-0.43028 0.0897,-1.04254 -0.33189,-1.30283 -0.42156,-0.2603 -1.03878,-0.12545 -1.3134,0.28695 -0.53973,0.76312 -1.37086,1.31457 -2.28372,1.51524 -0.91287,0.20068 -1.89864,0.0486 -2.70863,-0.41775 -0.7492,-0.40711 -1.3262,-1.12015 -1.56812,-1.93781 -0.24191,-0.81766 -0.14575,-1.72989 0.26133,-2.47914 0.19303,-0.45632 -0.0342,-1.04584 -0.48365,-1.25445 -0.44939,-0.2086 -1.04634,-0.002 -1.27025,0.44031 -0.44569,0.8216 -1.20578,1.46749 -2.0885,1.77472 -0.88272,0.30725 -1.87956,0.27288 -2.73902,-0.0944 -0.79208,-0.31562 -1.44936,-0.95542 -1.78628,-1.73872 -0.33691,-0.78332 -0.34931,-1.70051 -0.0337,-2.49264 0.13771,-0.47595 -0.15771,-1.03445 -0.62861,-1.18843 -0.4709,-0.15399 -1.03918,0.12207 -1.20926,0.58744 -0.3454,0.86854 -1.02376,1.59981 -1.86395,2.00931 -0.84019,0.40949 -1.83409,0.49326 -2.73096,0.23019 -0.82385,-0.21974 -1.55219,-0.77728 -1.97937,-1.51525 -0.4272,-0.73796 -0.54798,-1.64724 -0.32827,-2.47116 0.0804,-0.48889 -0.27895,-1.00851 -0.76476,-1.10571 -0.4858,-0.0972 -1.01744,0.24413 -1.13129,0.72632 -0.24026,0.90332 -0.82737,1.70968 -1.61323,2.21569 -0.78587,0.506 -1.76288,0.70673 -2.68457,0.55158 -0.84406,-0.12074 -1.63322,-0.58823 -2.14468,-1.27047 -0.51148,-0.68226 -0.73895,-1.57088 -0.61822,-2.415 0.0221,-0.49498 -0.39626,-0.96845 -0.89016,-1.00751 -0.49389,-0.039 -0.98144,0.36278 -1.03744,0.85507 -0.13175,0.92538 -0.61938,1.79553 -1.33989,2.39093 -0.7205,0.5954 -1.66691,0.91029 -2.60049,0.86525 -0.85241,-0.0201 -1.69132,-0.39092 -2.27989,-1.00789 -0.58856,-0.61698 -0.91955,-1.47244 -0.89948,-2.32492 -0.0367,-0.49411 -0.50802,-0.91477 -1.00306,-0.89513 -0.49505,0.0197 -0.93164,0.47629 -0.92904,0.97176 -0.0214,0.93447 -0.40268,1.85619 -1.04772,2.53262 -0.64502,0.67645 -1.54755,1.10108 -2.4799,1.16678 -0.8488,0.081 -1.72569,-0.18813 -2.38308,-0.73116 -0.65741,-0.54301 -1.08723,-1.35334 -1.16813,-2.20219 -0.0948,-0.48632 -0.61265,-0.84828 -1.10189,-0.77023 -0.48925,0.0781 -0.86877,0.58316 -0.8076,1.07482 0.0893,0.93045 -0.18033,1.8908 -0.74083,2.6388 -0.5605,0.74799 -1.40648,1.27638 -2.32451,1.4519 -0.83328,0.18074 -1.73582,0.0173 -2.45283,-0.44415 -0.71701,-0.46145 -1.23965,-1.21525 -1.42037,-2.04858 -0.15166,-0.47169 -0.70866,-0.76986 -1.18525,-0.63449 -0.47659,0.13537 -0.79371,0.68183 -0.67481,1.16282 0.1987,0.91335 0.0445,1.89885 -0.42355,2.70788 -0.46811,0.80905 -1.24566,1.4338 -2.13649,1.71666 -0.80606,0.27804 -1.72159,0.2225 -2.48814,-0.1509 -0.76655,-0.37341 -1.37467,-1.06009 -1.65268,-1.8662 -0.20638,-0.45043 -0.79474,-0.68064 -1.25197,-0.48985 -0.45724,0.19079 -0.7075,0.77092 -0.53255,1.23448 0.30532,0.88344 0.26881,1.88025 -0.10033,2.73898 -0.36915,0.85872 -1.06734,1.57106 -1.91847,1.95731 -0.76752,0.37142 -1.68319,0.42457 -2.48852,0.14445 -0.80534,-0.28011 -1.4904,-0.89006 -1.86179,-1.65761 -0.2582,-0.42286 -0.86965,-0.58185 -1.30111,-0.33833 -0.43146,0.24353 -0.61137,0.8492 -0.38282,1.2888 0.40767,0.84112 0.4893,1.83525 0.2243,2.73162 -0.265,0.89636 -0.87404,1.68628 -1.67352,2.17049 -0.7182,0.45959 -1.62117,0.62069 -2.45397,0.43779 -0.83281,-0.1829 -1.58519,-0.70753 -2.04476,-1.42577 -0.3064,-0.38936 -0.93237,-0.47492 -1.332,-0.18207 -0.39963,0.29286 -0.50664,0.91556 -0.22771,1.32505 0.50429,0.787 0.70291,1.7645 0.54579,2.68591 -0.15712,0.92142 -0.66848,1.77784 -1.40508,2.35321 -0.6588,0.54131 -1.53638,0.80807 -2.38497,0.72497 -0.84859,-0.0831 -1.65775,-0.51507 -2.19903,-1.17392 -0.35029,-0.35037 -0.98198,-0.36127 -1.34416,-0.0232 -0.36219,0.33806 -0.39481,0.96903 -0.0694,1.34266 0.59381,0.72183 0.90665,1.66896 0.8596,2.60251 -0.047,0.93353 -0.45354,1.84441 -1.11692,2.50287 -0.59016,0.61544 -1.43002,0.98413 -2.28249,1.00198 -0.85247,0.0179 -1.70702,-0.31537 -2.32243,-0.90556 -0.38927,-0.30651 -1.01782,-0.24262 -1.33749,0.13591 -0.31966,0.37854 -0.27743,1.00896 0.0899,1.34146 0.67502,0.64653 1.09768,1.55002 1.16136,2.48258 0.0637,0.93254 -0.23222,1.88511 -0.81307,2.61742 -0.51324,0.68092 -1.3036,1.14636 -2.14797,1.2649 -0.84437,0.11856 -1.73234,-0.11124 -2.41322,-0.62451 -0.42279,-0.25827 -1.03936,-0.12049 -1.31201,0.29319 -0.27266,0.41368 -0.15617,1.03467 0.24788,1.3214 0.74673,0.56214 1.27328,1.4093 1.4468,2.32777 0.17353,0.91847 -0.008,1.89936 -0.49781,2.69523 -0.42911,0.73685 -1.15888,1.29251 -1.9833,1.5101 -0.82443,0.21759 -1.73334,0.0944 -2.47015,-0.33469 -0.45036,-0.20647 -1.04632,0.003 -1.26813,0.4463 -0.22181,0.44303 -0.0327,1.04589 0.40242,1.28281 0.80798,0.46988 1.43102,1.24882 1.71195,2.14031 0.28094,0.8915 0.21704,1.88693 -0.17556,2.73519 -0.33895,0.78244 -0.99789,1.4205 -1.79079,1.73408 -0.7929,0.31358 -1.71001,0.2988 -2.49239,-0.0402 -0.47163,-0.15177 -1.03861,0.12698 -1.20647,0.59315 -0.16787,0.46617 0.0912,1.04243 0.55133,1.22621 0.85788,0.37102 1.56867,1.0708 1.95306,1.9228 0.38439,0.85201 0.43867,1.84801 0.14914,2.73676 -0.24403,0.81704 -0.82288,1.52857 -1.57313,1.93374 -0.75026,0.40516 -1.66267,0.49895 -2.47965,0.2549 -0.48626,-0.0949 -1.01627,0.24896 -1.12782,0.73171 -0.11155,0.48274 0.21386,1.0243 0.69245,1.15239 0.89573,0.26693 1.68429,0.87772 2.16675,1.67829 0.48246,0.80056 0.65415,1.78316 0.47176,2.6999 -0.14569,0.84016 -0.63633,1.61517 -1.3334,2.10624 -0.69707,0.49105 -1.59198,0.69211 -2.43209,0.54641 -0.49408,-0.0367 -0.97972,0.36741 -1.0334,0.85996 -0.0537,0.49256 0.33351,0.99184 0.82391,1.0624 0.92102,0.15913 1.77627,0.67235 2.35002,1.41024 0.57375,0.73787 0.86045,1.69326 0.78776,2.62515 -0.0453,0.8515 -0.44085,1.6791 -1.07495,2.24917 -0.6341,0.57005 -1.49895,0.87555 -2.35039,0.83024 -0.49495,0.022 -0.92939,0.48072 -0.92444,0.97616 0.005,0.49544 0.44846,0.94543 0.94376,0.95749 0.93336,0.049 1.84332,0.45754 2.5003,1.12237 0.657,0.66483 1.05467,1.5796 1.0927,2.51355 0.0557,0.85087 -0.23917,1.71946 -0.8014,2.36052 -0.56223,0.64106 -1.38489,1.04672 -2.23571,1.10243 -0.48887,0.0804 -0.866,0.58727 -0.8025,1.07865 0.0635,0.49139 0.55713,0.88573 1.05037,0.83915 0.93262,-0.0617 1.8845,0.23629 2.6155,0.81875 0.73101,0.58246 1.23407,1.44377 1.38229,2.36667 0.15595,0.83832 -0.0341,1.73567 -0.51661,2.43873 -0.48247,0.70307 -1.25137,1.20318 -2.08963,1.35913 -0.47595,0.13763 -0.7905,0.68559 -0.66932,1.16602 0.12119,0.48041 0.65798,0.81361 1.14226,0.709 0.91878,-0.17156 1.89921,0.0118 2.69397,0.50364 0.79476,0.49191 1.39616,1.28768 1.65248,2.18656 0.254,0.81398 0.17137,1.72753 -0.22456,2.48273 -0.39593,0.7552 -1.1003,1.34273 -1.91423,1.59676 -0.45632,0.19296 -0.70383,0.77426 -0.52669,1.23698 0.17714,0.4627 0.74956,0.73007 1.21805,0.56894 0.89205,-0.27904 1.88727,-0.213 2.73464,0.18145 0.84735,0.39444 1.53864,1.11349 1.89948,1.97575 0.34848,0.77823 0.37448,1.69514 0.0706,2.49187 -0.30385,0.79672 -0.93378,1.46345 -1.71196,1.81197 -0.43029,0.24558 -0.60731,0.85208 -0.3767,1.29058 0.23063,0.43852 0.83064,0.6363 1.2768,0.42088 0.85278,-0.38259 1.84883,-0.43472 2.73689,-0.14328 0.88806,0.29146 1.65953,0.9237 2.11981,1.73723 0.43808,0.73154 0.57232,1.63894 0.36485,2.46601 -0.20749,0.82708 -0.75415,1.56364 -1.48565,2.00175 -0.39824,0.29475 -0.5023,0.91793 -0.22143,1.32608 0.28087,0.40817 0.90007,0.53359 1.31761,0.26689 0.80155,-0.48075 1.78445,-0.65034 2.70075,-0.46598 0.9163,0.18438 1.75712,0.72091 2.31038,1.4743 0.52152,0.67459 0.76214,1.55974 0.65393,2.40555 -0.10822,0.84582 -0.56393,1.64186 -1.23848,2.16342 -0.36059,0.33977 -0.39022,0.97091 -0.0631,1.34298 0.32716,0.37206 0.95685,0.42337 1.33993,0.10917 0.73906,-0.57221 1.695,-0.85687 2.62667,-0.78217 0.93167,0.0747 1.83006,0.50802 2.46853,1.19067 0.59764,0.60818 0.94125,1.45866 0.93383,2.31133 -0.008,0.85267 -0.36579,1.69703 -0.97393,2.29471 -0.31787,0.38005 -0.27266,1.01025 0.0962,1.34101 0.36887,0.33077 1.00021,0.30722 1.34343,-0.0501 0.66621,-0.6556 1.58178,-1.05133 2.51574,-1.08736 0.93396,-0.036 1.87729,0.288 2.59202,0.89033 0.66537,0.53323 1.10716,1.33709 1.20062,2.18465 0.0935,0.84758 -0.16252,1.72839 -0.69571,2.39381 -0.27069,0.41497 -0.15125,1.0354 0.25416,1.32021 0.4054,0.28482 1.02951,0.18676 1.32807,-0.20863 0.58399,-0.7298 1.44634,-1.23104 2.36949,-1.37728 0.92315,-0.14625 1.89817,0.0639 2.67911,0.57749 0.72377,0.45077 1.25752,1.19675 1.45057,2.0273 0.19305,0.83057 0.043,1.73549 -0.40772,2.4593 -0.21973,0.44408 -0.0278,1.04606 0.40849,1.28091 0.43625,0.23488 1.04441,0.0637 1.2941,-0.36427 0.49358,-0.79377 1.29059,-1.39349 2.18996,-1.64789 0.89938,-0.25441 1.89241,-0.16105 2.72861,0.25655 0.772,0.36201 1.39023,1.0396 1.68015,1.8415 0.28993,0.8019 0.24798,1.71822 -0.11401,2.49026 -0.16565,0.46695 0.0962,1.04197 0.55711,1.22358 0.46096,0.18162 1.0446,-0.0603 1.24194,-0.51477 0.39624,-0.84655 1.11673,-1.53634 1.9797,-1.89534 0.86298,-0.359 1.86009,-0.38375 2.7398,-0.068 0.8094,0.26816 1.50342,0.86787 1.88614,1.62984 0.38273,0.76198 0.44944,1.67683 0.1813,2.48627 -0.10927,0.48328 0.21872,1.0233 0.69792,1.14912 0.4792,0.12582 1.03014,-0.18343 1.17233,-0.65806 0.29335,-0.8875 0.9272,-1.65766 1.74166,-2.11622 0.81446,-0.45855 1.80164,-0.60107 2.71252,-0.39158 0.83543,0.17055 1.59551,0.68397 2.06567,1.39532 0.47016,0.71136 0.64459,1.6119 0.47406,2.44737 -0.0514,0.49281 0.3382,0.99024 0.82891,1.0585 0.49072,0.0682 1.00123,-0.30401 1.08629,-0.79211 0.18633,-0.91597 0.72465,-1.75568 1.47915,-2.30736 0.75452,-0.55167 1.71792,-0.80994 2.64719,-0.70967 0.84973,0.0706 1.66519,0.49044 2.21618,1.1412 0.55098,0.65075 0.83069,1.52433 0.76018,2.37411 0.008,0.49542 0.45293,0.9433 0.94828,0.95302 0.49534,0.009 0.95823,-0.42028 0.98498,-0.91503 0.0767,-0.93156 0.51192,-1.82909 1.19588,-2.46612 0.68397,-0.63704 1.61007,-1.00746 2.54467,-1.0178 0.85211,-0.0304 1.71152,0.29004 2.33559,0.87105 0.62409,0.58102 1.00515,1.41539 1.03563,2.26755 0.0658,0.49107 0.56131,0.88309 1.05432,0.83416 0.49302,-0.0489 0.90181,-0.53068 0.86985,-1.02511 -0.034,-0.93411 0.29201,-1.87679 0.89585,-2.59026 0.60382,-0.71347 1.47961,-1.19082 2.40643,-1.31164 0.84252,-0.13105 1.7338,0.0856 2.42221,0.58868 0.68841,0.50313 1.16548,1.28656 1.29653,2.12914 0.12345,0.47983 0.66181,0.81049 1.14558,0.70359 0.48377,-0.1069 0.8327,-0.63361 0.74251,-1.12079 -0.14425,-0.92352 0.068,-1.89816 0.58321,-2.67805 0.51521,-0.77988 1.3284,-1.35746 2.23442,-1.58706 0.82111,-0.22979 1.73175,-0.12012 2.47484,0.29805 0.74307,0.41815 1.30945,1.13967 1.53922,1.96083 0.17934,0.46186 0.75302,0.7265 1.22074,0.56314 0.46772,-0.16337 0.75193,-0.72764 0.60475,-1.20074 -0.25245,-0.89997 -0.15696,-1.89288 0.2624,-2.72822 0.41937,-0.83536 1.15853,-1.50507 2.03105,-1.84022 0.78817,-0.3253 1.70538,-0.3241 2.49271,0.003 0.78732,0.32734 1.43505,0.97679 1.76032,1.76502 0.2327,0.43741 0.83366,0.63233 1.27879,0.4148 0.44514,-0.21754 0.66059,-0.81149 0.45849,-1.26386 -0.35713,-0.8638 -0.37972,-1.86102 -0.062,-2.74012 0.31762,-0.87908 0.97239,-1.63153 1.79915,-2.06754 0.74416,-0.41623 1.65509,-0.52353 2.4756,-0.29162 0.82051,0.23191 1.5405,0.80019 1.9567,1.54441 0.2828,0.40683 0.9026,0.52932 1.31889,0.26066 0.41628,-0.26867 0.55998,-0.88394 0.30579,-1.30923 -0.45677,-0.81549 -0.59715,-1.80304 -0.38573,-2.71353 0.21144,-0.9105 0.77264,-1.7351 1.54202,-2.26583 0.68971,-0.50134 1.58155,-0.71564 2.42373,-0.58239 0.84217,0.13323 1.62431,0.61235 2.12562,1.30211 0.32894,0.37052 0.95885,0.41884 1.34043,0.10283 0.38158,-0.31602 0.45152,-0.94395 0.14883,-1.33619 -0.55002,-0.75575 -0.8062,-1.71975 -0.70393,-2.64887 0.10231,-0.92911 0.562,-1.81431 1.26322,-2.43232 0.62558,-0.57938 1.48581,-0.89767 2.33784,-0.86499 0.85202,0.0327 1.68534,0.41595 2.2647,1.04158 0.37043,0.32903 1.00167,0.30251 1.3432,-0.0564 0.34154,-0.35893 0.33672,-0.99075 -0.0104,-1.34443 -0.63553,-0.68539 -1.00393,-1.61234 -1.01225,-2.54701 -0.008,-0.93469 0.34347,-1.86806 0.96668,-2.56467 0.55267,-0.64932 1.36922,-1.06711 2.21913,-1.13543 0.84991,-0.0683 1.72271,0.21367 2.37199,0.76638 0.40675,0.2829 1.03041,0.1819 1.3271,-0.21492 0.29668,-0.39681 0.21717,-1.02361 -0.16919,-1.33378 -0.71213,-0.6054 -1.18757,-1.48228 -1.30637,-2.40941 -0.11882,-0.92713 0.12013,-1.89556 0.65659,-2.66099 0.47199,-0.71013 1.2334,-1.22158 2.06927,-1.38995 0.83586,-0.16837 1.73588,0.008 2.44598,0.48044 0.43735,0.23281 1.04469,0.0587 1.29236,-0.37037 0.24768,-0.42913 0.0946,-1.04213 -0.32574,-1.30441 -0.77873,-0.51692 -1.35453,-1.3314 -1.58216,-2.23798 -0.22762,-0.90657 -0.10488,-1.89647 0.33726,-2.71997 0.38471,-0.76098 1.08029,-1.3589 1.89038,-1.62494 0.81008,-0.26607 1.7247,-0.19698 2.48563,0.18776 0.4618,0.17942 1.04428,-0.0653 1.23946,-0.52066 0.19518,-0.45539 -0.0293,-1.04598 -0.4777,-1.25671 -0.83439,-0.42118 -1.50248,-1.16183 -1.83573,-2.03513 -0.33325,-0.87329 -0.32843,-1.87076 0.0132,-2.74078 0.292,-0.80114 0.91199,-1.47713 1.68492,-1.83714 0.77294,-0.36 1.68931,-0.39958 2.49039,-0.10756 0.47979,0.12353 1.02923,-0.18832 1.16918,-0.6636 0.13995,-0.47529 -0.1528,-1.03516 -0.62297,-1.19139 -0.87834,-0.31953 -1.62934,-0.97597 -2.06352,-1.80371 -0.43419,-0.82774 -0.54737,-1.81878 -0.311,-2.72311 0.1952,-0.83006 0.73089,-1.57464 1.45582,-2.02354 0.72493,-0.4489 1.63018,-0.59658 2.46019,-0.40136 0.49103,0.0659 0.99975,-0.30875 1.0825,-0.79724 0.0827,-0.4885 -0.27415,-1.00983 -0.75949,-1.10934 -0.90998,-0.21341 -1.73334,-0.7764 -2.26237,-1.54698 -0.52903,-0.77057 -0.75863,-1.74127 -0.63086,-2.66722"
         sodipodi:nodetypes="cscscscscscscscscscscscscscscscscscscscscscscscscscscscscscscscscscscscscscscscscscscscscscscscscscscscscscscscscscscscscscscscscscscscscscscscscscscscscscscscscscscscscscscscscscscscscscscscscscscscscscscscscscscscscscscscscscscscscscscscscscscscscscscscscscscscscscscscscscscscscscscscscscscscscscscscscscscscscscscsc"
         inkscape:export-filename="/home/cwc/https/icebowl.github.io/img/chainring.png"
         inkscape:export-xdpi="96"
         inkscape:export-ydpi="96" />
      <g
         id="g3607"
         style="fill:#ffffff"
         transform="matrix(0.20771717,0,0,0.20773038,199.28579,513.59372)"
         inkscape:export-filename="/home/cwc/https/icebowl.github.io/img/chainring.png"
         inkscape:export-xdpi="96"
         inkscape:export-ydpi="96">
        <path
           sodipodi:nodetypes="cssscsssc"
           inkscape:connector-curvature="0"
           d="m 172.32349,300.80302 c 0.002,-4.60686 -1.89272,-9.18621 -5.14948,-12.44453 -3.25676,-3.25831 -7.83521,-5.1554 -12.44207,-5.1554 -4.60686,0 -9.18531,1.89709 -12.44207,5.1554 -3.25676,3.25832 -5.15168,7.83767 -5.14948,12.44453 -0.002,4.60686 1.89272,9.18621 5.14948,12.44453 3.25676,3.25831 7.83521,5.1554 12.44207,5.1554 4.60686,0 9.18531,-1.89709 12.44207,-5.1554 3.25676,-3.25832 5.15168,-7.83767 5.14948,-12.44453 z"
           style="fill:#ffffff;stroke:#000000;stroke-width:0.49998412"
           id="path2999" />
        <path
           sodipodi:nodetypes="cssscsssc"
           inkscape:connector-curvature="0"
           d="m 528.73125,559.74842 c 0.002,-4.60686 -1.89272,-9.18621 -5.14948,-12.44453 -3.25676,-3.25831 -7.83521,-5.1554 -12.44207,-5.1554 -4.60686,0 -9.18531,1.89709 -12.44207,5.1554 -3.25676,3.25832 -5.15168,7.83767 -5.14948,12.44453 -0.002,4.60686 1.89272,9.18621 5.14948,12.44453 3.25676,3.25831 7.83521,5.1554 12.44207,5.1554 4.60686,0 9.18531,-1.89709 12.44207,-5.1554 3.25676,-3.25832 5.15168,-7.83767 5.14948,-12.44453 z"
           style="fill:#ffffff;stroke:#000000;stroke-width:0.49998412"
           id="path3001" />
        <path
           sodipodi:nodetypes="cssscsssc"
           inkscape:connector-curvature="0"
           style="fill:#ffffff;stroke:#000000;stroke-width:0.49998412"
           d="m 392.5956,140.76597 c 0.002,-4.60686 -1.89272,-9.18621 -5.14948,-12.44453 -3.25676,-3.25831 -7.83521,-5.1554 -12.44207,-5.1554 -4.60686,0 -9.18531,1.89709 -12.44207,5.1554 -3.25676,3.25832 -5.15168,7.83767 -5.14948,12.44453 -0.002,4.60686 1.89272,9.18621 5.14948,12.44453 3.25676,3.25831 7.83521,5.1554 12.44207,5.1554 4.60686,0 9.18531,-1.89709 12.44207,-5.1554 3.25676,-3.25832 5.15168,-7.83767 5.14948,-12.44453 z"
           id="path3003" />
        <path
           sodipodi:nodetypes="cssscsssc"
           inkscape:connector-curvature="0"
           d="m 612.86771,300.80302 c 0.002,-4.60686 -1.89272,-9.18621 -5.14948,-12.44453 -3.25676,-3.25831 -7.83521,-5.1554 -12.44207,-5.1554 -4.60686,0 -9.18531,1.89709 -12.44207,5.1554 -3.25676,3.25832 -5.15168,7.83767 -5.14948,12.44453 -0.002,4.60686 1.89272,9.18621 5.14948,12.44453 3.25676,3.25831 7.83521,5.1554 12.44207,5.1554 4.60686,0 9.18531,-1.89709 12.44207,-5.1554 3.25676,-3.25832 5.15168,-7.83767 5.14948,-12.44453 z"
           style="fill:#ffffff;stroke:#000000;stroke-width:0.49998412"
           id="path3005" />
        <path
           sodipodi:nodetypes="cssscsssc"
           inkscape:connector-curvature="0"
           style="fill:#ffffff;stroke:#000000;stroke-width:0.49998412"
           d="m 256.45995,559.74842 c 0.002,-4.60686 -1.89272,-9.18621 -5.14948,-12.44453 -3.25676,-3.25831 -7.83521,-5.1554 -12.44207,-5.1554 -4.60686,0 -9.18531,1.89709 -12.44207,5.1554 -3.25676,3.25832 -5.15168,7.83767 -5.14948,12.44453 -0.002,4.60686 1.89272,9.18621 5.14948,12.44453 3.25676,3.25831 7.83521,5.1554 12.44207,5.1554 4.60686,0 9.18531,-1.89709 12.44207,-5.1554 3.25676,-3.25832 5.15168,-7.83767 5.14948,-12.44453 z"
           id="path3007" />
        <path
           inkscape:connector-curvature="0"
           style="fill:#ffffff;stroke:#000000;stroke-width:0.49998412"
           d="m 142.93645,561.99695 a 4.145627,4.145627 0 0 0 -3.813,0.94072"
           id="path3037" />
        <path
           sodipodi:nodetypes="cccsccccc"
           inkscape:connector-curvature="0"
           d="m 142.93645,561.99695 c 18.18294,4.67332 37.12896,6.36368 55.85203,4.9831 l 45.5876,33.12134 c 4.47274,18.23332 11.93501,35.72971 21.99844,51.57858 0.73103,1.1513 0.84116,2.67247 0.2836,3.91707 -1.70054,3.79595 -6.1086,6.17276 -10.21453,5.50765 -24.84967,-5.06025 -48.58237,-15.53422 -69.06838,-30.48198 -20.54669,-14.86424 -37.84183,-34.19875 -50.33339,-56.26848 -1.90137,-3.69944 -1.00304,-8.62624 2.08163,-11.41656"
           style="fill:#ffffff;stroke:#000000;stroke-width:0.49998412"
           id="path3043" />
        <path
           sodipodi:nodetypes="cccssccccc"
           inkscape:connector-curvature="0"
           d="m 493.56451,661.10469 c 24.84967,-5.06025 48.58237,-15.53422 69.06838,-30.48198 20.54669,-14.86424 37.84183,-34.19875 50.33339,-56.26848 1.90137,-3.69944 1.00304,-8.62624 -2.08163,-11.41656 -1.01139,-0.91488 -2.49214,-1.2802 -3.813,-0.94072 -18.18294,4.67332 -37.12896,6.36368 -55.85203,4.9831 l -45.5876,33.12134 c -4.47274,18.23332 -11.93501,35.72971 -21.99844,51.57858 -0.73103,1.1513 -0.84116,2.67247 -0.2836,3.91707 1.70054,3.79595 6.1086,6.17276 10.21453,5.50765 z"
           style="fill:#ffffff;stroke:#000000;stroke-width:0.49998412"
           id="path3059" />
        <path
           sodipodi:nodetypes="cccccccccc"
           inkscape:connector-curvature="0"
           d="m 677.84612,356.85147 c 4.13566,-0.44429 7.75831,-3.90213 8.39455,-8.01264 2.86638,-25.19714 0.23886,-51.00492 -7.64678,-75.10738 -7.78745,-24.13437 -20.83117,-46.55771 -37.96063,-65.25781 -2.93082,-2.9515 -7.89408,-3.61961 -11.50105,-1.54817 -1.18264,0.67917 -1.98766,1.97456 -2.07296,3.33568 -1.17425,18.73714 -5.42127,37.27823 -8.97064,45.96826 l 13.86354,62.28149 c 15.95876,9.88823 30.29285,22.39195 42.25625,36.86041 0.86905,1.05102 2.28174,1.62583 3.63772,1.48016 z"
           style="fill:#ffffff;stroke:#000000;stroke-width:0.49998412"
           id="path3075" />
        <path
           inkscape:connector-curvature="0"
           style="fill:#ffffff;stroke:#000000;stroke-width:0.49998412"
           d="m 451.29298,82.559477 a 4.145627,4.145627 0 0 0 2.53183,-3.00228"
           id="path3085" />
        <path
           sodipodi:nodetypes="cccsccccc"
           inkscape:connector-curvature="0"
           d="m 451.29298,82.559477 c -17.45722,6.906872 -33.77844,16.675537 -48.11424,28.797593 h -56.34938 c -14.3358,-12.122055 -30.65701,-21.89072 -48.11423,-28.797593 -1.26814,-0.501733 -2.25136,-1.667648 -2.53184,-3.00228 -0.85544,-4.07054 1.31369,-8.584423 5.02641,-10.459742 23.07815,-10.512436 48.43475,-15.988549 73.79435,-15.936929 25.3596,-0.05162 50.7162,5.424493 73.79435,15.936929 3.71272,1.875319 5.88185,6.389202 5.02641,10.459742"
           style="fill:#ffffff;stroke:#000000;stroke-width:0.49998412"
           id="path3091" />
        <path
           sodipodi:nodetypes="csccsccsccsccsccsccsccsccsccscc"
           inkscape:connector-curvature="0"
           d="m 560.63302,286.26909 c 21.86176,-12.96493 38.25173,-34.8497 44.54274,-59.47589 6.29101,-24.62618 2.4056,-51.69051 -10.55933,-73.55227 -20.56115,-25.77957 -48.19705,-45.85823 -79.06862,-57.446717 -24.79816,-5.574723 -51.73852,-0.906636 -73.21538,12.686387 -21.47687,13.59302 -37.22575,36.3007 -42.984,61.51836 l -49.21807,-0.735 C 344.90142,144.42416 329.15254,122.07362 307.67567,108.4806 286.19881,94.887577 259.25845,90.21949 234.46029,95.794213 203.58872,107.3827 175.95282,127.46136 155.39167,153.24093 c -12.96493,21.86176 -16.85034,48.92609 -10.55933,73.55227 6.29101,24.62619 22.68098,46.51096 44.54274,59.47589 L 174.216,332.92395 c -25.30713,-2.36118 -51.43043,5.71019 -70.99488,21.93543 -19.564448,16.22524 -32.329092,40.40453 -34.690269,65.71166 1.481465,32.94166 12.037439,65.42961 30.201527,92.95075 16.785392,19.08603 41.324432,31.14462 66.689362,32.77142 25.36493,1.6268 51.24336,-7.19822 70.32939,-23.98361 l 39.68699,28.83429 c -10.06594,23.33887 -10.46216,50.6778 -1.07679,74.29857 9.38538,23.62077 28.43675,43.23247 51.77562,53.29842 31.78717,8.77057 65.94703,8.77057 97.7342,0 23.33887,-10.06595 42.39024,-29.67765 51.77562,-53.29842 9.38537,-23.62077 8.98915,-50.9597 -1.07679,-74.29857 l 39.68699,-28.83429 c 19.08603,16.78539 44.96446,25.61041 70.32939,23.98361 25.36493,-1.6268 49.90397,-13.68539 66.68936,-32.77142 18.16409,-27.52114 28.72006,-60.00909 30.20153,-92.95075 -2.36118,-25.30713 -15.12582,-49.48642 -34.69027,-65.71166 -19.56445,-16.22524 -45.68775,-24.29661 -70.99488,-21.93543 l -15.15908,-46.65486"
           style="fill:#ffffff;stroke:#000000;stroke-width:0.49998412"
           id="path3439" />
        <path
           sodipodi:nodetypes="csccccccccc"
           inkscape:connector-curvature="0"
           d="m 72.161984,356.85147 c 1.355982,0.14567 2.768665,-0.42914 3.63772,-1.48016 11.963401,-14.46846 26.297486,-26.97218 42.256246,-36.86041 l 17.41292,-53.59145 c -7.09875,-17.38007 -11.34577,-35.92116 -12.52002,-54.6583 m 0,0 c -0.0853,-1.36111 -0.89031,-2.6565 -2.07295,-3.33568 -3.60697,-2.07144 -8.57023,-1.40333 -11.50106,1.54817 -17.129458,18.7001 -30.173173,41.12344 -37.960626,65.25781 -7.885643,24.10246 -10.513169,49.91024 -7.646787,75.10738 0.636241,4.11051 4.258897,7.56835 8.394557,8.01264"
           style="fill:#ffffff;stroke:#000000;stroke-width:0.49998412"
           id="path3455" />
      </g>
      <flowRoot
         xml:space="preserve"
         id="flowRoot845"
         style="fill:black;stroke:none;stroke-opacity:1;stroke-width:1px;stroke-linejoin:miter;stroke-linecap:butt;fill-opacity:1;font-family:Karla;font-style:normal;font-weight:normal;font-size:40px;line-height:125%;letter-spacing:0px;word-spacing:0px;-inkscape-font-specification:Karla;font-stretch:normal;font-variant:normal;"><flowRegion
           id="flowRegion847"
           style="-inkscape-font-specification:Karla;font-family:Karla;font-weight:normal;font-style:normal;font-stretch:normal;font-variant:normal;"><rect
             id="rect849"
             width="258.59906"
             height="254.55844"
             x="-579.82758"
             y="184.46552"
             style="-inkscape-font-specification:Karla;font-family:Karla;font-weight:normal;font-style:normal;font-stretch:normal;font-variant:normal;" /></flowRegion><flowPara
           id="flowPara851" /></flowRoot>      <circle
         id="path148-3"
         cx="100.03819"
         cy="586.2326"
         style="fill:#00ffff;stroke-width:1.25841045"
         r="75" />
      <path
         style="fill:#ffff00;stroke-width:1.25841045"
         d="m 484.90438,306.30942 a 75,75 0 0 1 -75,75 75,75 0 0 1 -75,-75 75,75 0 0 1 75,-75 75,75 0 0 1 75,75 z"
         id="path148-3-6"
         inkscape:connector-curvature="0" />
      <circle
         id="path148-3-7"
         cx="184.19006"
         cy="424.88083"
         style="fill:#00ff00;stroke-width:1.25841045"
         r="75" />
      <circle
         id="path148-3-5"
         cx="181.33293"
         cy="734.88086"
         style="fill:#0000ff;stroke-width:1.25841045"
         r="75" />
      <circle
         id="path148-3-3"
         cx="391.33295"
         cy="743.45233"
         style="fill:#ff00ff;stroke-width:1.25841045"
         r="75" />
      <flowRoot
         xml:space="preserve"
         id="flowRoot198"
         style="font-style:normal;font-weight:normal;font-size:40px;line-height:1.25;font-family:sans-serif;letter-spacing:0px;word-spacing:0px;fill:#000000;fill-opacity:1;stroke:none"
         transform="translate(-30.095632,-9.2091671)"><flowRegion
           id="flowRegion200"><rect
             id="rect202"
             width="468.57141"
             height="455.71429"
             x="-595.71429"
             y="429.80432" /></flowRegion><flowPara
           id="flowPara204">_____ Describe Yourself / Program</flowPara><flowPara
           id="flowPara206">_____ Successes or Challenges</flowPara><flowPara
           id="flowPara208">_____ Personal Satisfaction</flowPara><flowPara
           id="flowPara210">_____ Post Secondary Plans</flowPara><flowPara
           id="flowPara212">_____ Career Plans</flowPara><flowPara
           id="flowPara214">_____ Tri-Tech Advantage or Disadvantage</flowPara><flowPara
           id="flowPara216" /></flowRoot>      <g
         id="g3963"
         transform="translate(15.714286,-102.85714)">
        <circle
           r="75"
           style="fill:#ff0000;stroke-width:1.25841045"
           cy="684.05017"
           cx="445.20682"
           id="path148" />
        <flowRoot
           transform="translate(774.9389,377.19655)"
           style="font-style:normal;font-weight:normal;font-size:40px;line-height:1.25;font-family:sans-serif;letter-spacing:0px;word-spacing:0px;fill:#000000;fill-opacity:1;stroke:none"
           id="flowRoot142"
           xml:space="preserve"><flowRegion
             id="flowRegion144"><rect
               y="278.37573"
               x="-382.85715"
               height="95.714287"
               width="251.42857"
               id="rect146" /></flowRegion><flowPara
             style="font-style:normal;font-variant:normal;font-weight:normal;font-stretch:normal;font-size:21.33333397px;font-family:Karla;-inkscape-font-specification:'Karla, Normal';font-variant-ligatures:normal;font-variant-caps:normal;font-variant-numeric:normal;font-feature-settings:normal;text-align:start;writing-mode:lr-tb;text-anchor:start;fill:#ffffff"
             id="flowPara148">Successes</flowPara></flowRoot>      </g>
      <g
         aria-label="Satisfactions"
         transform="translate(724.63647,-0.01087286)"
         style="font-style:normal;font-weight:normal;font-size:40px;line-height:1.25;font-family:sans-serif;letter-spacing:0px;word-spacing:0px;fill:#000000;fill-opacity:1;stroke:none"
         id="flowRoot142-2">
        <path
           d="m -375.77475,299.64296 q 2.048,0.0853 3.264,1.13066 1.216,1.024 1.408,2.96534 h -2.496 q -0.32,-1.64267 -2.176,-1.792 z m -0.85334,2.304 q -0.768,0.0853 -1.30133,0.46933 -0.53334,0.384 -0.53334,1.00267 0,0.61866 0.384,0.98133 0.40534,0.34133 1.23734,0.64 l 3.008,1.17333 q 1.536,0.59734 2.368,1.51467 0.832,0.896 0.832,2.26133 0,1.87734 -1.36533,2.944 -1.36534,1.06667 -3.776,1.13067 v -2.32533 q 0.85333,0 1.6,-0.42667 0.74666,-0.448 0.74666,-1.17333 0,-0.74667 -0.40533,-1.13067 -0.40533,-0.40533 -1.32267,-0.74667 l -2.752,-1.088 q -1.6,-0.61866 -2.45333,-1.45066 -0.85334,-0.832 -0.85334,-2.304 0,-1.728 1.344,-2.73067 1.36534,-1.04533 3.24267,-1.04533 z m 0,12.096 q -1.92,-0.128 -3.15733,-1.10934 -1.6,-1.23733 -1.68534,-3.49866 h 2.496 q 0,1.70666 1.77067,2.15466 0.256,0.064 0.576,0.10667 z"
           style="font-style:normal;font-variant:normal;font-weight:normal;font-stretch:normal;font-size:21.33333397px;font-family:Karla;-inkscape-font-specification:'Karla, Normal';font-variant-ligatures:normal;font-variant-caps:normal;font-variant-numeric:normal;font-feature-settings:normal;text-align:start;writing-mode:lr-tb;text-anchor:start;fill:#000000"
           id="path3966"
           inkscape:connector-curvature="0" />
        <path
           d="m -360.97642,308.11229 v -1.024 q 0,-1.088 -0.448,-1.6 -0.42667,-0.53333 -1.42934,-0.53333 -0.98133,0 -1.51466,0.40533 -0.53334,0.384 -0.53334,1.10933 h -2.752 q 0,-1.77066 1.23734,-2.56 1.25866,-0.78933 3.49866,-0.78933 3.20001,0 4.13867,2.24 0.32,0.768 0.32,1.81333 v 6.592 h -2.19733 l -0.192,-1.38666 q -1.00267,1.68533 -3.072,1.68533 -2.00534,0 -3.11467,-0.98133 -1.024,-0.93867 -1.024,-2.368 0,-1.45067 1.13067,-2.21867 1.13066,-0.78933 3.09333,-0.78933 0.896,0 2.00534,0.21333 v 1.6 q -0.78934,-0.14933 -1.49334,-0.14933 -2.048,0 -2.048,1.36533 0,0.576 0.46933,1.00267 0.46934,0.40533 1.49334,0.40533 1.04533,0 1.70667,-0.68267 0.68266,-0.704 0.72533,-1.74933 z"
           style="font-style:normal;font-variant:normal;font-weight:normal;font-stretch:normal;font-size:21.33333397px;font-family:Karla;-inkscape-font-specification:'Karla, Normal';font-variant-ligatures:normal;font-variant-caps:normal;font-variant-numeric:normal;font-feature-settings:normal;text-align:start;writing-mode:lr-tb;text-anchor:start;fill:#000000"
           id="path3968"
           inkscape:connector-curvature="0" />
        <path
           d="m -348.94475,313.50962 q -1.408,0.55467 -2.21867,0.55467 -0.81067,0 -1.42933,-0.192 -0.59734,-0.192 -1.06667,-0.576 -0.98133,-0.87467 -0.98133,-2.41067 v -5.80266 h -1.45067 v -1.68534 h 1.45067 v -2.73066 h 2.51733 v 2.73066 h 2.816 v 1.68534 h -2.816 v 5.71733 q 0,1.28 1.216,1.28 0.61867,0 1.6,-0.34133 z"
           style="font-style:normal;font-variant:normal;font-weight:normal;font-stretch:normal;font-size:21.33333397px;font-family:Karla;-inkscape-font-specification:'Karla, Normal';font-variant-ligatures:normal;font-variant-caps:normal;font-variant-numeric:normal;font-feature-settings:normal;text-align:start;writing-mode:lr-tb;text-anchor:start;fill:#000000"
           id="path3970"
           inkscape:connector-curvature="0" />
        <path
           d="m -346.16009,303.37629 h 2.51733 v 10.38933 h -2.51733 z m -0.29867,-3.328 q 0,-0.68267 0.40534,-1.06667 0.40533,-0.40533 1.152,-0.40533 0.72533,0 1.13066,0.40533 0.42667,0.384 0.42667,1.06667 0,0.68267 -0.42667,1.088 -0.40533,0.384 -1.13066,0.384 -0.74667,0 -1.152,-0.384 -0.40534,-0.40533 -0.40534,-1.088 z"
           style="font-style:normal;font-variant:normal;font-weight:normal;font-stretch:normal;font-size:21.33333397px;font-family:Karla;-inkscape-font-specification:'Karla, Normal';font-variant-ligatures:normal;font-variant-caps:normal;font-variant-numeric:normal;font-feature-settings:normal;text-align:start;writing-mode:lr-tb;text-anchor:start;fill:#000000"
           id="path3972"
           inkscape:connector-curvature="0" />
        <path
           d="m -337.96542,310.60829 q 0.0427,1.472 2.15466,1.472 0.81067,0 1.32267,-0.34133 0.53334,-0.36267 0.53334,-0.832 0,-0.46934 -0.32,-0.72534 -0.32001,-0.256 -1.00267,-0.46933 l -2.26134,-0.81067 q -2.51733,-0.87466 -2.51733,-2.85866 0,-1.32267 1.17333,-2.112 1.19467,-0.81067 3.17867,-0.81067 2.00534,0 3.072,0.87467 1.088,0.87466 1.13067,2.19733 h -2.368 q -0.0427,-0.512 -0.49067,-0.81067 -0.448,-0.29866 -1.28,-0.29866 -0.832,0 -1.30133,0.34133 -0.448,0.32 -0.448,0.74667 0,0.74666 1.25866,1.10933 l 2.45334,0.91733 q 1.216,0.40534 1.856,1.04534 0.66133,0.61866 0.66133,1.62133 0,1.28 -1.216,2.21867 -1.25866,0.98133 -3.328,0.98133 -2.06933,0 -3.328,-0.896 -1.25867,-0.91733 -1.28,-2.56 z"
           style="font-style:normal;font-variant:normal;font-weight:normal;font-stretch:normal;font-size:21.33333397px;font-family:Karla;-inkscape-font-specification:'Karla, Normal';font-variant-ligatures:normal;font-variant-caps:normal;font-variant-numeric:normal;font-feature-settings:normal;text-align:start;writing-mode:lr-tb;text-anchor:start;fill:#000000"
           id="path3974"
           inkscape:connector-curvature="0" />
        <path
           d="m -329.67075,303.39762 h 1.536 v -1.216 q 0,-1.6 0.93866,-2.45333 0.85334,-0.768 2.21867,-0.768 0.87467,0 2.15467,0.256 l -0.49067,1.94133 q -0.59733,-0.21333 -1.088,-0.21333 -0.46933,0 -0.832,0.27733 -0.36267,0.256 -0.36267,0.98134 v 1.19466 h 1.89867 v 1.68534 h -1.89867 v 8.68266 h -2.53866 v -8.68266 h -1.536 z"
           style="font-style:normal;font-variant:normal;font-weight:normal;font-stretch:normal;font-size:21.33333397px;font-family:Karla;-inkscape-font-specification:'Karla, Normal';font-variant-ligatures:normal;font-variant-caps:normal;font-variant-numeric:normal;font-feature-settings:normal;text-align:start;writing-mode:lr-tb;text-anchor:start;fill:#000000"
           id="path3976"
           inkscape:connector-curvature="0" />
        <path
           d="m -314.47642,308.11229 v -1.024 q 0,-1.088 -0.448,-1.6 -0.42667,-0.53333 -1.42934,-0.53333 -0.98133,0 -1.51466,0.40533 -0.53334,0.384 -0.53334,1.10933 h -2.752 q 0,-1.77066 1.23734,-2.56 1.25866,-0.78933 3.49866,-0.78933 3.20001,0 4.13867,2.24 0.32,0.768 0.32,1.81333 v 6.592 h -2.19733 l -0.192,-1.38666 q -1.00267,1.68533 -3.072,1.68533 -2.00534,0 -3.11467,-0.98133 -1.024,-0.93867 -1.024,-2.368 0,-1.45067 1.13067,-2.21867 1.13066,-0.78933 3.09333,-0.78933 0.896,0 2.00534,0.21333 v 1.6 q -0.78934,-0.14933 -1.49334,-0.14933 -2.048,0 -2.048,1.36533 0,0.576 0.46933,1.00267 0.46934,0.40533 1.49334,0.40533 1.04533,0 1.70667,-0.68267 0.68266,-0.704 0.72533,-1.74933 z"
           style="font-style:normal;font-variant:normal;font-weight:normal;font-stretch:normal;font-size:21.33333397px;font-family:Karla;-inkscape-font-specification:'Karla, Normal';font-variant-ligatures:normal;font-variant-caps:normal;font-variant-numeric:normal;font-feature-settings:normal;text-align:start;writing-mode:lr-tb;text-anchor:start;fill:#000000"
           id="path3978"
           inkscape:connector-curvature="0" />
        <path
           d="m -304.34342,303.12029 q 0.98133,0 1.74933,0.34133 0.78934,0.32 1.32267,0.85334 1.06667,1.024 1.25867,2.58133 l -2.53867,0.064 q -0.17067,-0.68267 -0.64,-1.13067 -0.448,-0.448 -1.04533,-0.448 -0.59734,0 -1.024,0.192 -0.42667,0.17067 -0.74667,0.55467 -0.72533,0.896 -0.72533,2.47467 0,1.57866 0.68266,2.38933 0.68267,0.78933 1.64267,0.78933 0.98133,0 1.408,-0.448 0.448,-0.46933 0.448,-1.25866 h 2.53867 q 0,1.70666 -1.13067,2.83733 -1.152,1.152 -3.22133,1.152 -2.048,0 -3.43467,-1.49333 -1.472,-1.6 -1.472,-3.98934 0,-2.51733 1.472,-4.032 1.38667,-1.42933 3.456,-1.42933 z"
           style="font-style:normal;font-variant:normal;font-weight:normal;font-stretch:normal;font-size:21.33333397px;font-family:Karla;-inkscape-font-specification:'Karla, Normal';font-variant-ligatures:normal;font-variant-caps:normal;font-variant-numeric:normal;font-feature-settings:normal;text-align:start;writing-mode:lr-tb;text-anchor:start;fill:#000000"
           id="path3980"
           inkscape:connector-curvature="0" />
        <path
           d="m -291.15309,313.50962 q -1.408,0.55467 -2.21867,0.55467 -0.81066,0 -1.42933,-0.192 -0.59733,-0.192 -1.06667,-0.576 -0.98133,-0.87467 -0.98133,-2.41067 v -5.80266 h -1.45067 v -1.68534 h 1.45067 v -2.73066 h 2.51733 v 2.73066 h 2.81601 v 1.68534 h -2.81601 v 5.71733 q 0,1.28 1.216,1.28 0.61867,0 1.60001,-0.34133 z"
           style="font-style:normal;font-variant:normal;font-weight:normal;font-stretch:normal;font-size:21.33333397px;font-family:Karla;-inkscape-font-specification:'Karla, Normal';font-variant-ligatures:normal;font-variant-caps:normal;font-variant-numeric:normal;font-feature-settings:normal;text-align:start;writing-mode:lr-tb;text-anchor:start;fill:#000000"
           id="path3982"
           inkscape:connector-curvature="0" />
        <path
           d="m -288.36842,303.37629 h 2.51734 v 10.38933 h -2.51734 z m -0.29866,-3.328 q 0,-0.68267 0.40533,-1.06667 0.40533,-0.40533 1.152,-0.40533 0.72533,0 1.13067,0.40533 0.42666,0.384 0.42666,1.06667 0,0.68267 -0.42666,1.088 -0.40534,0.384 -1.13067,0.384 -0.74667,0 -1.152,-0.384 -0.40533,-0.40533 -0.40533,-1.088 z"
           style="font-style:normal;font-variant:normal;font-weight:normal;font-stretch:normal;font-size:21.33333397px;font-family:Karla;-inkscape-font-specification:'Karla, Normal';font-variant-ligatures:normal;font-variant-caps:normal;font-variant-numeric:normal;font-feature-settings:normal;text-align:start;writing-mode:lr-tb;text-anchor:start;fill:#000000"
           id="path3984"
           inkscape:connector-curvature="0" />
        <path
           d="m -277.95508,314.04296 q -1.92,-0.128 -3.136,-1.344 -1.472,-1.472 -1.472,-4.096 0,-2.66667 1.472,-4.13867 1.19466,-1.19467 3.136,-1.32267 v 2.15467 q -0.61867,0 -1.344,0.832 -0.72534,0.81067 -0.72534,2.45333 0,1.64267 0.59734,2.41067 0.59733,0.74667 1.472,0.85333 z m 0.87466,-2.21867 q 0.78934,-0.14933 1.42934,-0.87467 0.64,-0.72533 0.64,-2.368 0,-1.64266 -0.59734,-2.38933 -0.576,-0.768 -1.472,-0.87467 v -2.176 q 0.81067,0.0427 1.62134,0.34134 0.832,0.29866 1.49333,0.98133 1.472,1.49333 1.472,4.13867 0,2.60266 -1.472,4.096 -1.19467,1.23733 -3.11467,1.344 z"
           style="font-style:normal;font-variant:normal;font-weight:normal;font-stretch:normal;font-size:21.33333397px;font-family:Karla;-inkscape-font-specification:'Karla, Normal';font-variant-ligatures:normal;font-variant-caps:normal;font-variant-numeric:normal;font-feature-settings:normal;text-align:start;writing-mode:lr-tb;text-anchor:start;fill:#000000"
           id="path3986"
           inkscape:connector-curvature="0" />
        <path
           d="m -267.02376,305.18962 q 1.024,-2.06933 3.28534,-2.06933 1.92,0 2.88,1.25867 0.98133,1.25866 0.98133,3.328 v 6.05866 h -2.51733 v -6.05866 q 0,-1.152 -0.55467,-1.728 -0.55466,-0.59734 -1.55733,-0.59734 -1.00267,0 -1.728,0.896 -0.704,0.896 -0.74667,2.688 v 4.8 h -2.51733 v -10.368 h 2.19733 z"
           style="font-style:normal;font-variant:normal;font-weight:normal;font-stretch:normal;font-size:21.33333397px;font-family:Karla;-inkscape-font-specification:'Karla, Normal';font-variant-ligatures:normal;font-variant-caps:normal;font-variant-numeric:normal;font-feature-settings:normal;text-align:start;writing-mode:lr-tb;text-anchor:start;fill:#000000"
           id="path3988"
           inkscape:connector-curvature="0" />
        <path
           d="m -254.79875,310.60829 q 0.0427,1.472 2.15467,1.472 0.81066,0 1.32266,-0.34133 0.53334,-0.36267 0.53334,-0.832 0,-0.46934 -0.32,-0.72534 -0.32,-0.256 -1.00267,-0.46933 l -2.26133,-0.81067 q -2.51734,-0.87466 -2.51734,-2.85866 0,-1.32267 1.17334,-2.112 1.19466,-0.81067 3.17866,-0.81067 2.00534,0 3.072,0.87467 1.088,0.87466 1.13067,2.19733 h -2.368 q -0.0427,-0.512 -0.49067,-0.81067 -0.448,-0.29866 -1.28,-0.29866 -0.832,0 -1.30133,0.34133 -0.448,0.32 -0.448,0.74667 0,0.74666 1.25867,1.10933 l 2.45333,0.91733 q 1.216,0.40534 1.856,1.04534 0.66133,0.61866 0.66133,1.62133 0,1.28 -1.216,2.21867 -1.25866,0.98133 -3.328,0.98133 -2.06933,0 -3.328,-0.896 -1.25866,-0.91733 -1.28,-2.56 z"
           style="font-style:normal;font-variant:normal;font-weight:normal;font-stretch:normal;font-size:21.33333397px;font-family:Karla;-inkscape-font-specification:'Karla, Normal';font-variant-ligatures:normal;font-variant-caps:normal;font-variant-numeric:normal;font-feature-settings:normal;text-align:start;writing-mode:lr-tb;text-anchor:start;fill:#000000"
           id="path3990"
           inkscape:connector-curvature="0" />
      </g>
      <flowRoot
         xml:space="preserve"
         id="flowRoot142-9"
         style="font-style:normal;font-weight:normal;font-size:40px;line-height:1.25;font-family:sans-serif;letter-spacing:0px;word-spacing:0px;fill:#000000;fill-opacity:1;stroke:none"
         transform="translate(538.67633,118.02724)"><flowRegion
           id="flowRegion144-2"><rect
             id="rect146-2"
             width="251.42857"
             height="95.714287"
             x="-382.85715"
             y="278.37573" /></flowRegion><flowPara
           id="flowPara148-31"
           style="font-style:normal;font-variant:normal;font-weight:normal;font-stretch:normal;font-size:21.33333397px;font-family:Karla;-inkscape-font-specification:'Karla, Normal';font-variant-ligatures:normal;font-variant-caps:normal;font-variant-numeric:normal;font-feature-settings:normal;text-align:start;writing-mode:lr-tb;text-anchor:start;fill:#ffffff">Plans</flowPara></flowRoot>      <flowRoot
         xml:space="preserve"
         id="flowRoot142-2-8"
         style="font-style:normal;font-weight:normal;font-size:40px;line-height:1.25;font-family:sans-serif;letter-spacing:0px;word-spacing:0px;fill:#000000;fill-opacity:1;stroke:none"
         transform="translate(449.54778,279.37896)"><flowRegion
           id="flowRegion144-8-3"
           style="fill:#000000"><rect
             id="rect146-0-4"
             width="251.42857"
             height="95.714287"
             x="-382.85715"
             y="278.37573"
             style="fill:#000000" /></flowRegion><flowPara
           id="flowPara148-3-2"
           style="font-style:normal;font-variant:normal;font-weight:normal;font-stretch:normal;font-size:21.33333397px;font-family:Karla;-inkscape-font-specification:'Karla, Normal';font-variant-ligatures:normal;font-variant-caps:normal;font-variant-numeric:normal;font-feature-settings:normal;text-align:start;writing-mode:lr-tb;text-anchor:start;fill:#000000">Career</flowPara></flowRoot>      <flowRoot
         xml:space="preserve"
         id="flowRoot142-24"
         style="font-style:normal;font-weight:normal;font-size:40px;line-height:1.25;font-family:sans-serif;letter-spacing:0px;word-spacing:0px;fill:#000000;fill-opacity:1;stroke:none"
         transform="translate(525.5737,428.56054)"><flowRegion
           id="flowRegion144-5"><rect
             id="rect146-1"
             width="251.42857"
             height="95.714287"
             x="-382.85715"
             y="278.37573" /></flowRegion><flowPara
           id="flowPara148-7"
           style="font-style:normal;font-variant:normal;font-weight:normal;font-stretch:normal;font-size:21.33333397px;font-family:Karla;-inkscape-font-specification:'Karla, Normal';font-variant-ligatures:normal;font-variant-caps:normal;font-variant-numeric:normal;font-feature-settings:normal;text-align:start;writing-mode:lr-tb;text-anchor:start;fill:#ffffff">Tri-Tech</flowPara></flowRoot>    </g>
    <g
       transform="matrix(18.189987,0,0,18.2833,-5714.5012,-7488.6094)"
       inkscape:transform-center-x="48.805243"
       inkscape:transform-center-y="-8.877593e-05"
       style="font-size:40px;font-style:normal;font-variant:normal;font-weight:normal;font-stretch:normal;text-align:start;line-height:125%;letter-spacing:0px;word-spacing:0px;writing-mode:lr-tb;text-anchor:start;fill:none;stroke:#000000;stroke-width:0.05483484;stroke-miterlimit:4;stroke-opacity:1;font-family:Utsaah;-inkscape-font-specification:Utsaah"
       id="flowRoot3704" />
  </g>
</svg>
